<svg width="24" height="22" viewBox="0 0 24 22" fill="none" xmlns="http://www.w3.org/2000/svg">
<path d="M23.667 4C23.667 2.07033 22.0967 0.5 20.167 0.5C18.6484 0.5 17.3645 1.47854 16.8812 2.83333L8.50032 2.83333C5.29255 2.83333 2.66699 5.4589 2.66699 8.66667L2.66699 9.83333L1.4707 9.83333C0.902534 9.83333 0.617029 10.52 1.01953 10.9225L3.14323 13.0485C3.52473 13.43 4.14259 13.43 4.52409 13.0485L6.64778 10.9225C7.04912 10.52 6.76478 9.83333 6.19661 9.83333L5.00032 9.83333L5.00032 8.66667C5.00032 6.7201 6.55376 5.16667 8.50032 5.16667L16.8812 5.16667C17.3645 6.52146 18.6484 7.5 20.167 7.5C22.0967 7.5 23.667 5.92967 23.667 4ZM23.1611 11.417C23.1403 11.296 23.0815 11.1781 22.9811 11.0775L20.8574 8.9515C20.4759 8.57 19.8581 8.57 19.4766 8.9515L17.3529 11.0775C16.9504 11.48 17.2359 12.1667 17.804 12.1667L19.0003 12.1667L19.0003 13.3333C19.0003 15.2799 17.4469 16.8333 15.5003 16.8333L7.11946 16.8333C6.63615 15.4785 5.3522 14.5 3.83366 14.5C1.90399 14.5 0.333656 16.0703 0.333656 18C0.333655 19.9297 1.90399 21.5 3.83366 21.5C5.3522 21.5 6.63615 20.5215 7.11946 19.1667L15.5003 19.1667C18.7081 19.1667 21.3337 16.5411 21.3337 13.3333L21.3337 12.1667L22.5299 12.1667C22.9561 12.1667 23.2237 11.7801 23.1611 11.417Z" fill="#1D1E21"/>
</svg>
