<svg width="26" height="26" viewBox="0 0 26 26" fill="none" xmlns="http://www.w3.org/2000/svg">
<path d="M7.60462 0.861328C3.88098 0.861328 0.861328 3.88098 0.861328 7.60462V18.3939C0.861328 22.1175 3.88098 25.1372 7.60462 25.1372H18.3939C22.1175 25.1372 25.1372 22.1175 25.1372 18.3939V7.60462C25.1372 3.88098 22.1175 0.861328 18.3939 0.861328H7.60462ZM21.0912 3.55865C21.8357 3.55865 22.4399 4.16285 22.4399 4.90731C22.4399 5.65176 21.8357 6.25596 21.0912 6.25596C20.3468 6.25596 19.7426 5.65176 19.7426 4.90731C19.7426 4.16285 20.3468 3.55865 21.0912 3.55865ZM12.9993 6.25596C16.7229 6.25596 19.7426 9.27561 19.7426 12.9993C19.7426 16.7229 16.7229 19.7426 12.9993 19.7426C9.27561 19.7426 6.25596 16.7229 6.25596 12.9993C6.25596 9.27561 9.27561 6.25596 12.9993 6.25596ZM12.9993 8.95328C11.9262 8.95328 10.8971 9.37955 10.1383 10.1383C9.37955 10.8971 8.95328 11.9262 8.95328 12.9993C8.95328 14.0723 9.37955 15.1014 10.1383 15.8602C10.8971 16.619 11.9262 17.0452 12.9993 17.0452C14.0723 17.0452 15.1014 16.619 15.8602 15.8602C16.619 15.1014 17.0452 14.0723 17.0452 12.9993C17.0452 11.9262 16.619 10.8971 15.8602 10.1383C15.1014 9.37955 14.0723 8.95328 12.9993 8.95328Z" fill="#555555"/>
</svg>
