<svg width="80" height="80" viewBox="0 0 80 80" fill="none" xmlns="http://www.w3.org/2000/svg">
<path d="M50.0563 52.6734C49.918 52.5316 49.7474 52.4247 49.5587 52.3616C49.37 52.2984 49.1688 52.2809 48.9718 52.3105C48.7749 52.3402 48.588 52.416 48.4268 52.5318C48.2657 52.6476 48.1351 52.7998 48.0458 52.9759C47.4994 53.7536 47.8271 54.3802 48.5046 54.9419C46.0325 58.072 42.7357 60.4679 38.976 61.8665C35.2164 63.2651 31.1394 63.6123 27.1932 62.8698C23.247 62.1273 19.5843 60.324 16.6072 57.6579C13.6301 54.9918 11.454 51.5661 10.3178 47.7572C9.18168 43.9482 9.12943 39.9034 10.167 36.0671C11.2045 32.2307 13.2917 28.7512 16.199 26.011C19.1064 23.2707 22.7214 21.3756 26.6472 20.534C30.5729 19.6923 34.6574 19.9366 38.4519 21.2399C43.6321 22.9055 47.9516 26.5014 50.4934 31.2641C52.2609 34.4489 53.1875 38.0229 53.1875 41.6555C53.1875 45.2882 52.2609 48.8621 50.4934 52.0469L55.2575 55.5035C55.3868 55.2643 55.5787 55.0641 55.8133 54.9234C56.0478 54.7828 56.3162 54.707 56.5905 54.7042H56.7435C57.4708 53.3145 58.0847 51.8697 58.5793 50.3834C58.4234 50.2438 58.2981 50.0739 58.2117 49.8843C58.1252 49.6947 58.0792 49.4897 58.0765 49.2817C58.0804 48.938 58.2043 48.606 58.4273 48.3422C58.6504 48.0784 58.9588 47.8989 59.3003 47.8342C59.6604 46.235 59.887 44.6092 59.9778 42.9733C59.6839 42.8774 59.4284 42.6921 59.2478 42.4436C59.0672 42.1952 58.9709 41.8967 58.9726 41.5908C58.9757 41.283 59.0764 40.9839 59.2607 40.7358C59.445 40.4877 59.7035 40.3032 59.9997 40.2081C59.9284 38.7551 59.7384 37.3101 59.4315 35.8874C59.0605 35.8549 58.7155 35.6858 58.4646 35.4137C58.2136 35.1417 58.0751 34.7865 58.0765 34.4183C58.0747 34.1731 58.136 33.9314 58.2545 33.716C58.373 33.5006 58.5448 33.3186 58.754 33.1869C58.2584 31.6318 57.6296 30.1212 56.8746 28.6716H56.6124C56.2183 28.6716 55.8403 28.5169 55.5616 28.2414C55.2829 27.9659 55.1263 27.5922 55.1263 27.2026C55.1295 26.8517 55.2615 26.5139 55.4978 26.252C54.6052 24.8809 53.5963 23.5872 52.482 22.385C52.3165 22.4563 52.138 22.4931 51.9575 22.493C51.7165 22.496 51.4784 22.4401 51.2645 22.3303C51.0505 22.2205 50.8673 22.0601 50.7311 21.8635C50.5948 21.6669 50.5098 21.44 50.4836 21.2031C50.4574 20.9662 50.4908 20.7266 50.5807 20.5055C49.3891 19.4599 48.1178 18.5065 46.7782 17.6538C46.5461 17.8281 46.2611 17.9194 45.9696 17.913C45.7737 17.9159 45.579 17.8799 45.3974 17.8071C45.2158 17.7343 45.0509 17.6262 44.9123 17.4892C44.7737 17.3522 44.6643 17.1891 44.5907 17.0095C44.5171 16.8299 44.4806 16.6377 44.4836 16.444C42.9977 15.685 41.4475 15.0561 39.8506 14.5644C39.7094 14.7186 39.5375 14.8422 39.3458 14.9277C39.154 15.0132 38.9464 15.0587 38.7361 15.0613C38.398 15.0678 38.0684 14.9567 37.8048 14.7475C37.5411 14.5382 37.3602 14.2439 37.2936 13.9162C35.6661 13.5896 34.0144 13.3946 32.3548 13.333H30.3879C28.7314 13.4193 27.086 13.6507 25.4708 14.0243C25.4191 14.2892 25.2945 14.5348 25.1108 14.7343C24.9272 14.9338 24.6916 15.0794 24.4298 15.1553C24.1679 15.2312 23.89 15.2343 23.6265 15.1644C23.363 15.0945 23.1241 14.9541 22.9359 14.7588C21.3451 15.2741 19.8082 15.9398 18.3465 16.7464C18.3524 17.1324 18.2044 17.5051 17.9345 17.784C17.6646 18.063 17.2945 18.2257 16.9042 18.237C16.6122 18.2448 16.324 18.1699 16.0738 18.021C14.7545 18.896 13.5117 19.8787 12.3586 20.9591C12.3916 21.1231 12.3916 21.292 12.3586 21.456C12.3644 21.649 12.3318 21.8412 12.2624 22.0216C12.1931 22.202 12.0884 22.3672 11.9544 22.5076C11.8205 22.6481 11.6599 22.761 11.4817 22.84C11.3036 22.9191 11.1115 22.9626 10.9163 22.9682C10.7431 23.0009 10.565 23.0009 10.3917 22.9682C9.30487 24.1895 8.33215 25.5055 7.48527 26.9001C7.67232 27.1094 7.79516 27.3671 7.8394 27.6429C7.88365 27.9187 7.84748 28.2012 7.7351 28.4574C7.62272 28.7136 7.43879 28.9328 7.20489 29.0894C6.97099 29.2459 6.69682 29.3333 6.41446 29.3413H6.13035C5.42527 30.8196 4.84054 32.3511 4.38194 33.9213C4.59347 34.047 4.7689 34.2243 4.89134 34.4361C5.01378 34.6479 5.07915 34.8872 5.08128 35.1311C5.08927 35.4963 4.95943 35.8513 4.71701 36.1269C4.47458 36.4025 4.137 36.5789 3.77011 36.6218C3.50247 38.0911 3.35627 39.5795 3.33301 41.0722C3.6292 41.1602 3.88888 41.3401 4.07383 41.5851C4.25877 41.8302 4.35924 42.1275 4.3602 42.4332C4.36806 42.7343 4.28206 43.0306 4.11397 43.2817C3.94589 43.5329 3.70373 43.7269 3.42037 43.8375C3.54228 45.4714 3.81303 47.091 4.22908 48.6768C4.56928 48.74 4.87769 48.9155 5.10395 49.1745C5.33021 49.4335 5.46082 49.7606 5.47463 50.1025C5.47718 50.3041 5.4378 50.504 5.35885 50.6898C5.2799 50.8757 5.16315 51.0434 5.01579 51.1827C5.54038 52.6361 6.18355 54.045 6.93892 55.3955H7.09192C7.28602 55.3897 7.47925 55.4223 7.66053 55.4911C7.84182 55.5599 8.00746 55.6637 8.14779 55.7963C8.28812 55.929 8.40032 56.0879 8.47791 56.2639C8.55551 56.4399 8.59702 56.6295 8.59983 56.8214C8.59723 57.1185 8.51412 57.4093 8.35934 57.6639C9.16125 58.8052 10.045 59.8881 11.0037 60.9044C11.2909 60.8697 11.582 60.9213 11.8392 61.0522C12.0964 61.1832 12.3078 61.3877 12.446 61.639C12.6012 61.8993 12.6628 62.2039 12.6208 62.5032C13.8318 63.6044 15.141 64.595 16.5326 65.4629C16.8683 65.3152 17.2479 65.2976 17.5961 65.4136C17.9442 65.5297 18.2355 65.7709 18.4121 66.0894C18.5226 66.2661 18.5898 66.4659 18.6087 66.6727C19.809 67.2884 21.0502 67.8225 22.3239 68.2714C22.5566 68.0235 22.8698 67.864 23.2092 67.8206C23.5485 67.7772 23.8925 67.8526 24.1814 68.0338C24.3685 68.1368 24.5279 68.2828 24.6458 68.4596C24.7638 68.6363 24.8368 68.8385 24.8589 69.0491C26.4782 69.4587 28.1309 69.7261 29.7978 69.8484C29.9006 69.6833 30.0354 69.54 30.1945 69.4266C30.3536 69.3132 30.5339 69.2321 30.7248 69.188C30.9158 69.1438 31.1137 69.1373 31.3072 69.1691C31.5007 69.2009 31.6859 69.2703 31.8521 69.3732C32.0896 69.5278 32.2787 69.7447 32.3984 69.9997C33.9965 69.9803 35.5901 69.8285 37.1625 69.5459C37.1875 69.3774 37.247 69.2158 37.3374 69.0707C37.5448 68.7432 37.8745 68.5096 38.2549 68.4207C38.6354 68.3317 39.0359 68.3945 39.3698 68.5955C39.5155 68.6934 39.6477 68.8095 39.7631 68.9411C41.3456 68.4913 42.888 67.9133 44.3744 67.2128C44.3457 66.9466 44.3911 66.6777 44.5057 66.4351C44.6204 66.1926 44.7999 65.9856 45.0249 65.8366C45.2498 65.6876 45.5117 65.6022 45.7822 65.5896C46.0527 65.5771 46.3216 65.6378 46.5597 65.7653L46.7345 65.895C48.1552 65.036 49.5003 64.0603 50.7556 62.9784C50.6483 62.775 50.5923 62.549 50.5923 62.3195C50.5923 62.0901 50.6483 61.8641 50.7556 61.6606C50.9455 61.3623 51.2377 61.1414 51.5787 61.0383C51.9197 60.9352 52.2868 60.9566 52.6131 61.0989C53.8685 59.7707 54.9885 58.3235 55.9568 56.7782L55.2575 56.3461C53.2469 55.1147 51.6516 53.948 50.0563 52.6734Z" fill="#1D1E21"/>
<path d="M65.3552 12.0211C63.6121 12.5373 62.0451 13.6249 60.8543 15.1451C59.6636 16.6654 58.9028 18.5495 58.669 20.5573C58.4483 22.5504 58.7611 24.5722 59.5677 26.3647C60.3743 28.1573 61.638 29.6393 63.1977 30.6216C63.4777 30.7389 63.7126 30.9623 63.8617 31.2532C64.0107 31.5442 64.0646 31.8844 64.0141 32.2153C64.0141 32.9794 64.0141 33.7653 64.0141 34.6604H66.0744C66.4826 34.6604 66.3659 35.7957 66.3076 36.2978C65.9722 39.0496 66.4502 41.8492 67.6682 44.2664C68.2813 45.6113 68.7885 47.0138 69.1842 48.458C69.5103 49.484 69.6379 50.5763 69.5585 51.6621C69.479 52.7479 69.1943 53.8021 68.7234 54.7546C68.2526 55.707 67.6063 56.5357 66.8277 57.1854C66.0491 57.8351 65.1562 58.2909 64.2084 58.5223C62.1758 59.1574 60.0093 58.972 58.0858 57.9984C57.6388 58.7843 57.1723 59.5703 56.667 60.3125C58.9238 61.5645 61.4808 61.9628 63.9557 61.4478C66.2757 61.0209 68.3731 59.6453 69.8443 57.5857C71.3155 55.5262 72.0565 52.9283 71.9248 50.2919C71.8034 47.9766 71.1829 45.729 70.1171 43.7424C68.8017 41.198 68.3268 38.2142 68.776 35.3155C68.8732 34.726 69.0093 34.4422 69.573 34.4859C70.1366 34.5295 70.6419 34.4859 71.225 34.4859C71.225 33.6999 71.225 33.0668 71.225 32.4555C71.1394 32.0163 71.1937 31.5573 71.3784 31.1584C71.5631 30.7594 71.8665 30.4459 72.2358 30.2724C74.1084 29.0508 75.5203 27.1044 76.2072 24.7977C76.8942 22.491 76.809 19.9822 75.9676 17.7409C75.105 15.515 73.558 13.7121 71.6094 12.6619C69.6608 11.6116 67.4409 11.3842 65.3552 12.0211ZM67.6098 29.4863C65.8056 29.4863 64.0753 28.6814 62.7996 27.2484C61.5238 25.8154 60.807 23.8718 60.807 21.8453C60.807 19.8188 61.5238 17.8753 62.7996 16.4423C64.0753 15.0093 65.8056 14.2042 67.6098 14.2042C69.4141 14.2042 71.1444 15.0093 72.4201 16.4423C73.6959 17.8753 74.4127 19.8188 74.4127 21.8453C74.4127 23.8718 73.6959 25.8154 72.4201 27.2484C71.1444 28.6814 69.4141 29.4863 67.6098 29.4863Z" fill="#1D1E21"/>
<path d="M31.0234 21.668C27.2266 21.6288 23.5041 22.7672 20.3282 24.9389C17.1523 27.1106 14.6661 30.2177 13.1851 33.866C11.7041 37.5143 11.2949 41.5394 12.0095 45.4308C12.724 49.3221 14.5302 52.9043 17.1987 55.7229C19.8673 58.5416 23.2781 60.4696 26.9984 61.2624C30.7186 62.0553 34.5807 61.6773 38.0947 60.1763C41.6088 58.6753 44.6163 56.119 46.736 52.8317C48.8556 49.5443 49.9918 45.6741 50.0003 41.712C49.9952 36.4394 48.0015 31.3807 44.4503 27.6298C40.8992 23.8789 36.0759 21.7373 31.0234 21.668ZM30.918 35.7934C31.2088 35.7934 31.4877 35.9139 31.6933 36.1284C31.8989 36.343 32.0144 36.6341 32.0144 36.9375C31.9489 37.1766 31.8107 37.3869 31.6204 37.5366C31.4302 37.6863 31.1984 37.7673 30.9601 37.7673C30.7218 37.7673 30.4901 37.6863 30.2999 37.5366C30.1097 37.3869 29.9713 37.1766 29.9058 36.9375C29.905 36.6487 30.009 36.3703 30.1967 36.1581C30.3844 35.9459 30.6421 35.8156 30.918 35.7934ZM30.918 39.6438C31.1753 39.6349 31.4315 39.6802 31.6717 39.7768C31.9118 39.8735 32.1309 40.0195 32.3158 40.2063C32.5007 40.3931 32.6478 40.6169 32.7482 40.8642C32.8486 41.1115 32.9002 41.3773 32.9001 41.6459C32.9002 42.1869 32.6971 42.7064 32.3345 43.093C31.9718 43.4796 31.4784 43.7026 30.9601 43.7141C30.4778 43.6617 30.0313 43.4247 29.7066 43.0488C29.382 42.673 29.2023 42.1849 29.2023 41.6789C29.2023 41.1729 29.382 40.6849 29.7066 40.309C30.0313 39.9332 30.4778 39.6962 30.9601 39.6438H30.918ZM34.7977 45.0343C34.8443 45.2046 34.8524 45.3838 34.8214 45.5579C34.7903 45.732 34.721 45.8962 34.6188 46.0376C34.5166 46.179 34.3843 46.2936 34.2325 46.3725C34.0806 46.4515 33.9131 46.4927 33.7434 46.4927C33.5737 46.4927 33.4064 46.4515 33.2545 46.3725C33.1026 46.2936 32.9703 46.179 32.8682 46.0376C32.766 45.8962 32.6965 45.732 32.6655 45.5579C32.6344 45.3838 32.6425 45.2046 32.6891 45.0343C32.6425 44.8641 32.6344 44.6848 32.6655 44.5107C32.6965 44.3366 32.766 44.1724 32.8682 44.031C32.9703 43.8897 33.1026 43.775 33.2545 43.696C33.4064 43.617 33.5737 43.5759 33.7434 43.5759C33.9131 43.5759 34.0806 43.617 34.2325 43.696C34.3843 43.775 34.5166 43.8897 34.6188 44.031C34.721 44.1724 34.7903 44.3366 34.8214 44.5107C34.8524 44.6848 34.8443 44.8641 34.7977 45.0343ZM33.9332 40.0398C33.929 39.8126 33.9897 39.5893 34.1076 39.3983C34.2255 39.2072 34.3953 39.0572 34.5952 38.9672C34.7952 38.8772 35.0163 38.8514 35.2304 38.8931C35.4444 38.9347 35.6417 39.0419 35.7971 39.201C35.9526 39.3601 36.0591 39.5639 36.1032 39.7864C36.1472 40.0089 36.1268 40.2401 36.0445 40.4504C35.9621 40.6608 35.8216 40.8407 35.6409 40.9675C35.4602 41.0942 35.2473 41.1619 35.0296 41.1619C34.7424 41.162 34.4667 41.0445 34.2617 40.8346C34.0566 40.6248 33.9388 40.3394 33.9332 40.0398ZM28.1979 43.8902C28.487 43.8958 28.7628 44.0182 28.9673 44.2315C29.1717 44.4449 29.289 44.7327 29.2944 45.0343C29.2944 45.3378 29.1789 45.6287 28.9733 45.8433C28.7677 46.0579 28.4887 46.1783 28.1979 46.1783C27.9071 46.1783 27.6283 46.0579 27.4227 45.8433C27.217 45.6287 27.1016 45.3378 27.1016 45.0343C27.1016 44.7309 27.217 44.4398 27.4227 44.2252C27.6283 44.0107 27.9071 43.8902 28.1979 43.8902ZM26.7641 41.2939C26.5473 41.2939 26.3353 41.2268 26.155 41.1011C25.9747 40.9754 25.8342 40.7967 25.7512 40.5877C25.6682 40.3786 25.6464 40.1485 25.6888 39.9266C25.7311 39.7046 25.8355 39.5008 25.9889 39.3408C26.1422 39.1808 26.3375 39.0718 26.5502 39.0276C26.7629 38.9835 26.9833 39.0062 27.1837 39.0928C27.384 39.1794 27.5553 39.326 27.6758 39.5142C27.7963 39.7023 27.8606 39.9235 27.8606 40.1498C27.8606 40.3 27.8322 40.4489 27.7771 40.5877C27.722 40.7265 27.6412 40.8526 27.5394 40.9589C27.4376 41.0651 27.3167 41.1493 27.1837 41.2068C27.0507 41.2643 26.9081 41.2939 26.7641 41.2939ZM16.8751 31.5029C17.0664 31.0591 17.2921 30.6323 17.5498 30.2267C18.905 28.1138 20.7855 26.4255 22.9899 25.3423C23.9963 24.7912 25.0664 24.3771 26.1738 24.1102C28.8517 23.6041 29.6317 24.4622 29.3576 26.4644C28.8937 29.6988 28.7884 30.3148 28.2401 34.2752C28.0082 35.9694 27.4178 36.4755 25.7732 36.2334C21.8302 35.5734 22.6947 35.7273 18.5198 34.9573C16.1371 34.4072 15.863 33.8791 16.8751 31.5029ZM17.6341 52.119C17.2964 51.7886 16.9796 51.4359 16.6854 51.0629C15.1612 49.078 14.1844 46.6971 13.8598 44.1762C13.6755 43.0132 13.626 41.8313 13.7122 40.6559C14.0707 37.8396 15.0827 37.2894 16.8328 38.1915C19.6372 39.6437 20.1855 39.9077 23.6224 41.6459C25.0984 42.416 25.4147 43.1421 24.6767 44.7042C22.8633 48.4226 23.264 47.6086 21.3031 51.525C20.1645 53.7692 19.5318 53.8572 17.6341 52.119ZM37.0749 58.3897C36.6777 58.6376 36.2616 58.851 35.8308 59.0277C33.5541 59.9358 31.0849 60.1867 28.683 59.7538C27.5637 59.5863 26.4669 59.2835 25.4146 58.8517C22.9476 57.6415 22.7579 56.4754 24.1073 55.0013C26.2159 52.647 26.7009 52.1851 29.3155 49.3028C30.4541 48.0486 31.2131 47.9606 32.415 49.1708C35.2826 52.075 34.6502 51.3709 37.6443 54.5612C39.3522 56.4094 39.2257 57.0696 37.0749 58.3897ZM48.2713 40.6559C48.4937 44.383 47.4399 48.0712 45.2982 51.0629C45.0024 51.4414 44.6781 51.7945 44.3283 52.119C42.4728 53.8572 41.8192 53.7692 40.6595 51.525C38.6985 47.6086 39.1202 48.4226 37.3069 44.7042C36.5689 43.1421 36.8851 42.504 38.3611 41.6459C41.7981 39.9077 42.3463 39.6437 45.1507 38.1915C46.943 37.2894 47.9129 37.8396 48.2713 40.6559ZM43.4428 34.9573C39.2257 35.7273 40.1533 35.5734 36.2104 36.2334C34.5446 36.4975 33.9753 35.9694 33.7223 34.2752C33.1952 30.3148 33.0898 29.6988 32.6259 26.4644C32.3307 24.4622 33.1319 23.6041 35.8097 24.1102C39.2932 25.0066 42.3531 27.1767 44.4337 30.2267C44.6914 30.6323 44.9171 31.0591 45.1085 31.5029C46.1206 33.8791 45.8465 34.4072 43.4428 34.9573Z" fill="#1D1E21"/>
<path d="M72.4634 18.3487C71.4882 18.6642 70.4816 18.8752 69.4611 18.9781C69.055 18.7991 68.6157 18.7062 68.1714 18.7053C67.3303 18.7053 66.5236 19.0369 65.9289 19.6271C65.3341 20.2173 65 21.0178 65 21.8525C65 22.6872 65.3341 23.4877 65.9289 24.0779C66.5236 24.6681 67.3303 24.9997 68.1714 24.9997C68.8686 24.9946 69.5447 24.7616 70.0951 24.3368C70.6454 23.9121 71.0393 23.3191 71.216 22.6498C71.4116 22.0449 71.6966 21.4722 72.0617 20.9503C72.3577 20.4887 72.8229 20.1111 73.14 19.6495C73.2383 19.5313 73.3021 19.3885 73.3244 19.2369C73.3468 19.0852 73.3269 18.9304 73.2669 18.7892C73.2093 18.6317 73.0961 18.5004 72.9484 18.4194C72.8007 18.3383 72.6284 18.3133 72.4634 18.3487ZM68.2349 23.1533C68.053 23.1648 67.8706 23.1392 67.6991 23.0779C67.5276 23.0166 67.3707 22.9211 67.2379 22.7972C67.1051 22.6733 66.9993 22.5235 66.9272 22.3574C66.855 22.1913 66.8179 22.0124 66.8182 21.8315C66.7939 21.6368 66.8118 21.4392 66.8702 21.2518C66.9287 21.0643 67.0267 20.8913 67.1576 20.7443C67.2886 20.5973 67.4494 20.4795 67.6297 20.3989C67.8099 20.3183 68.0054 20.2766 68.2031 20.2766C68.4009 20.2766 68.5964 20.3183 68.7766 20.3989C68.9569 20.4795 69.1177 20.5973 69.2487 20.7443C69.3796 20.8913 69.4776 21.0643 69.5361 21.2518C69.5945 21.4392 69.6122 21.6368 69.5879 21.8315C69.5825 22.1804 69.4405 22.5135 69.1919 22.7602C68.9433 23.0069 68.6076 23.1479 68.2561 23.1533H68.2349Z" fill="#1D1E21"/>
<path d="M69.1228 17.0761C69.5305 17.2466 69.9691 17.3235 70.4084 17.3015C70.8477 17.2795 71.2771 17.1593 71.667 16.9488C70.7075 15.8412 69.3763 15.1524 67.9435 15.0224C66.5107 14.8924 65.0838 15.3309 63.9524 16.2488C62.8991 17.0266 62.1475 18.1661 61.8318 19.4638C61.5161 20.7615 61.6568 22.133 62.2288 23.3333C62.197 22.7399 62.197 22.1451 62.2288 21.5517C62.3023 20.7416 62.5551 19.9599 62.9677 19.267C63.3802 18.5741 63.9415 17.9886 64.608 17.5559C65.2745 17.1232 66.0284 16.855 66.8113 16.7717C67.5942 16.6885 68.3851 16.7927 69.1228 17.0761Z" fill="#1D1E21"/>
</svg>
