<svg width="80" height="80" viewBox="0 0 80 80" fill="none" xmlns="http://www.w3.org/2000/svg">
<path d="M49.6242 33.0061C49.011 30.7627 47.6952 28.7748 45.8695 27.334C44.0439 25.8931 41.8045 25.0751 39.48 25H39.1473C36.8836 25.004 34.678 25.7171 32.8403 27.039C31.0026 28.3609 29.6251 30.2255 28.9014 32.3705C28.1778 34.5154 28.1443 36.8332 28.8056 38.9982C29.4669 41.1632 30.7899 43.0665 32.5886 44.441C34.3873 45.8155 36.5714 46.5921 38.8341 46.6616C41.0968 46.731 43.3244 46.0898 45.204 44.8282C47.0836 43.5665 48.5208 41.7479 49.3136 39.6275C50.1065 37.5071 50.215 35.1915 49.6242 33.0061ZM37.5081 26.9007C37.6981 26.5443 38.197 26.3542 39.0048 26.2592C39.6418 26.225 40.2806 26.273 40.9053 26.4019C42.2363 26.6228 43.4835 27.197 44.5165 28.0648C44.7163 28.2371 44.8992 28.4279 45.0629 28.6349C45.4905 29.1338 45.7519 29.5378 45.6806 29.8941C45.6093 30.2505 45.2292 30.5118 44.659 30.7969L42.022 32.0561L41.0241 32.5311C40.7933 32.6417 40.5431 32.7061 40.2876 32.7211H40.0026C39.7175 32.7211 39.5037 32.3648 39.2899 31.8896C38.6009 30.3454 38.3871 29.8465 37.9357 28.8724L37.6031 28.1361C37.4842 27.955 37.4132 27.7466 37.3966 27.5306C37.38 27.3146 37.4183 27.0979 37.5081 26.9007ZM40.7866 36.6648C40.8615 36.643 40.9399 36.6361 41.0174 36.6445C41.095 36.653 41.17 36.6766 41.2384 36.7141C41.3765 36.7899 41.479 36.9176 41.5231 37.0688C41.5679 37.2232 41.5508 37.3888 41.4754 37.5308C41.3999 37.6727 41.2722 37.7796 41.1192 37.8289C40.9617 37.8728 40.7932 37.8525 40.6507 37.7724C40.5082 37.6922 40.4033 37.5588 40.359 37.4014C40.3375 37.325 40.3316 37.245 40.3416 37.1663C40.3516 37.0875 40.3774 37.0113 40.4173 36.9427C40.4571 36.874 40.5103 36.8141 40.5737 36.7663C40.6372 36.7186 40.7096 36.6841 40.7866 36.6648ZM40.3352 34.6693C40.2911 34.5181 40.3089 34.3556 40.3846 34.2175C40.4604 34.0794 40.5878 33.9768 40.739 33.9327C40.8934 33.8886 41.0591 33.9078 41.1994 33.9858C41.3398 34.0637 41.4433 34.1942 41.4874 34.3486C41.5315 34.5029 41.5126 34.6685 41.4346 34.8088C41.3566 34.9492 41.226 35.0527 41.0717 35.0968C40.9952 35.1182 40.9152 35.1242 40.8365 35.1142C40.7577 35.1042 40.6818 35.0784 40.6132 35.0385C40.5445 34.9986 40.4844 34.9456 40.4367 34.8822C40.389 34.8187 40.3545 34.7463 40.3352 34.6693ZM37.9595 37.4963C38.1138 37.4514 38.2796 37.4687 38.4216 37.5441C38.5635 37.6195 38.6705 37.7473 38.7197 37.9003C38.7636 38.0578 38.7432 38.2261 38.663 38.3686C38.5829 38.5111 38.4495 38.616 38.2921 38.6604C38.1379 38.6972 37.9755 38.6735 37.8384 38.5939C37.7013 38.5143 37.6001 38.3851 37.5556 38.2329C37.5064 38.0937 37.5107 37.941 37.5678 37.8048C37.6249 37.6687 37.7307 37.5587 37.8645 37.4963H37.9595ZM38.2208 32.9824C38.3783 32.9385 38.5468 32.959 38.6893 33.0392C38.8318 33.1194 38.9367 33.2527 38.981 33.4101C39.0179 33.5643 38.9941 33.7269 38.9145 33.864C38.8349 34.0011 38.7056 34.1023 38.5534 34.1467C38.4022 34.1908 38.2397 34.1729 38.1016 34.0971C37.9635 34.0214 37.861 33.894 37.8169 33.7428C37.7664 33.6002 37.77 33.4441 37.8269 33.304C37.8839 33.1639 37.9902 33.0493 38.1258 32.9824H38.2208ZM38.0782 36.2374C38.0156 35.97 38.0536 35.689 38.1851 35.448C38.3166 35.2069 38.5323 35.0227 38.7909 34.9306C39.0618 34.8492 39.354 34.8785 39.6034 35.0121C39.8527 35.1457 40.039 35.3728 40.1213 35.6434C40.1769 35.782 40.2031 35.9304 40.1977 36.0796C40.1924 36.2288 40.1559 36.3754 40.0906 36.5097C40.0252 36.6439 39.9324 36.7629 39.8183 36.8591C39.7041 36.9554 39.5711 37.0266 39.4278 37.0682C39.2844 37.1099 39.1339 37.121 38.9859 37.101C38.838 37.081 38.6959 37.0302 38.5688 36.9519C38.4416 36.8737 38.3322 36.7697 38.2477 36.6466C38.1633 36.5235 38.1055 36.3841 38.0782 36.2374ZM30.2146 32.9351C30.2146 32.6975 30.2146 32.4361 30.3809 32.1985C30.7968 30.9327 31.5432 29.8009 32.5429 28.92C32.9842 28.4828 33.4886 28.1145 34.0395 27.8272C35.3699 27.1621 35.9164 27.4707 36.0589 28.5398C36.2727 30.2265 36.3202 30.5594 36.6053 32.6262C36.6053 33.529 36.4865 33.8853 35.5837 34.004L31.5925 34.4556C30.0958 34.5744 29.9295 34.2892 30.0958 32.9351H30.2146ZM36.2252 38.4466C35.8214 40.5848 35.9163 40.1097 35.4412 42.3904C35.1561 43.697 34.8234 43.8395 33.5881 43.2456C33.3608 43.1337 33.1459 42.9982 32.9467 42.8416C31.8902 42.0657 31.0682 41.0138 30.571 39.8009C30.3161 39.2357 30.1172 38.6466 29.9771 38.0426C29.7632 36.5697 30.2384 36.1421 31.2837 36.3322L35.3462 37.045C36.0352 37.2826 36.2964 37.5438 36.1301 38.4466H36.2252ZM36.8429 36.4035C36.6886 36.4476 36.5229 36.4287 36.3826 36.3508C36.2422 36.2728 36.1387 36.142 36.0946 35.9877C36.0505 35.8333 36.0694 35.6678 36.1474 35.5274C36.2253 35.3871 36.3559 35.2836 36.5103 35.2395C36.6647 35.1954 36.8302 35.2143 36.9705 35.2922C37.1109 35.3702 37.2146 35.5007 37.2587 35.655C37.3028 35.8094 37.2837 35.9752 37.2057 36.1156C37.1278 36.2559 36.9973 36.3594 36.8429 36.4035ZM44.7302 43.5307C44.5596 43.7092 44.3771 43.8758 44.1839 44.0295C43.1166 44.8323 41.8528 45.3329 40.5253 45.4786C39.9024 45.5614 39.2713 45.5614 38.6484 45.4786C37.1754 45.2411 36.9142 44.6709 37.4131 43.7444L39.3374 40.086C39.7413 39.2783 40.1452 39.1117 40.9529 39.5394L44.4927 41.4876C45.538 42.034 45.5856 42.4853 44.6353 43.4831L44.7302 43.5307ZM48.1039 38.6366C47.9991 38.8732 47.88 39.1034 47.7475 39.3256C47.3911 39.8958 47.0823 40.2522 46.7259 40.2997C46.3933 40.2997 46.0369 40.0145 45.633 39.5869C44.3739 38.2803 44.3027 38.1852 43.6137 37.4487L42.8772 36.6411C42.7409 36.5272 42.6302 36.3857 42.5524 36.2261C42.4746 36.0664 42.4315 35.892 42.4258 35.7145C42.452 35.5323 42.5162 35.3579 42.6145 35.2023C42.7128 35.0468 42.8428 34.9136 42.996 34.8117L45.3717 32.6025L45.9894 32.0323C46.1267 31.8807 46.2959 31.7615 46.4849 31.6834C46.6739 31.6054 46.8781 31.5702 47.0823 31.5808C47.4862 31.5808 47.8425 32.0797 48.1751 32.84C48.3889 33.4308 48.5324 34.0449 48.6027 34.6693C48.7595 36.0056 48.5544 37.3595 48.0088 38.5893L48.1039 38.6366Z" fill="#1D1E21"/>
<path d="M39.2081 23.6462C41.8149 23.658 44.3496 24.493 46.4423 26.0292C48.5915 27.5928 50.1457 29.8257 50.855 32.3683C51.654 35.1585 51.4088 38.1397 50.1643 40.7657C48.9198 43.3918 46.7594 45.4868 44.079 46.6667H50.421C52.619 44.4704 54.1105 41.6806 54.7077 38.6485C55.305 35.6165 54.9814 32.4775 53.7776 29.6268C52.5737 26.7761 50.5434 24.341 47.9423 22.628C45.3412 20.915 42.2855 20.0006 39.1598 20C37.6843 20.0022 36.216 20.2026 34.7952 20.5958C32.1541 21.35 29.7565 22.7694 27.8376 24.7149C25.9187 26.6605 24.5442 29.0654 23.8489 31.694C23.1535 34.3225 23.1613 37.0844 23.8712 39.7092C24.5812 42.3339 25.969 44.7315 27.8987 46.6667H34.2646C33.4156 46.2972 32.6075 45.8419 31.8532 45.3082C30.0374 43.9651 28.6365 42.1486 27.8074 40.0623C26.9783 37.976 26.7541 35.7025 27.1598 33.4973C27.5655 31.292 28.5852 29.2423 30.1043 27.578C31.6234 25.9136 33.5819 24.7004 35.7598 24.075C36.8364 23.7829 37.947 23.6308 39.0634 23.6223" fill="#1D1E21"/>
<path d="M58.3337 61.667H26.667V73.3337H58.3337V61.667Z" fill="#1D1E21"/>
<path d="M54.9997 50H54.7814H49.4229H45.5918H44.7189H41.106H36.9841H33.3228H32.3528H28.6672H23.333V59.2516V60H54.9997V50Z" fill="#1D1E21"/>
<path d="M40.0004 5L1.66699 26.2733V33.3333L40.0004 12.1532L78.3337 33.3333V26.2733L40.0004 5Z" fill="#1D1E21"/>
</svg>
