<svg width="28" height="28" viewBox="0 0 28 28" fill="none" xmlns="http://www.w3.org/2000/svg">
<path d="M9.93067 23.3602C9.94817 22.6252 9.99133 21.7 10.094 21.1155C10.206 20.4832 10.423 19.7225 10.5898 19.187C10.7205 18.767 10.605 18.3097 10.2947 17.9982L7.72333 15.4117C8.66483 13.6243 9.7615 12.1928 10.9807 10.9807C12.1928 9.7615 13.6243 8.66483 15.4117 7.72333L17.9993 10.2947C18.312 10.605 18.7682 10.7205 19.1882 10.5898C19.7225 10.4242 20.4843 10.206 21.1167 10.094C21.7012 9.99133 22.6252 9.94817 23.3613 9.93067C23.996 9.9155 24.5 9.3975 24.5 8.76167V4.66667C24.5 4.15567 24.1173 3.5 23.3333 3.5C18.0378 3.5 12.9803 5.64667 9.29367 9.29367C5.64667 12.9803 3.5 18.0378 3.5 23.3333C3.5 24.1173 4.15567 24.5 4.66667 24.5H8.76167C9.3975 24.5 9.9155 23.996 9.93067 23.3602Z" fill="#1D1E21"/>
</svg>
