<svg width="28" height="28" viewBox="0 0 28 28" fill="none" xmlns="http://www.w3.org/2000/svg">
<path fill-rule="evenodd" clip-rule="evenodd" d="M15.4146 9.60175L15.294 9.57637V20.9996C15.294 21.4967 14.891 21.8996 14.394 21.8996H13.6052C13.1082 21.8996 12.7052 21.4967 12.7052 20.9996V9.57637L12.5846 9.60175C10.7846 9.98061 9.05678 10.8537 7.78037 12.5648C6.50484 14.2747 5.68834 16.8105 5.68834 20.4996V20.9996C5.68834 21.4967 5.2854 21.8996 4.78834 21.8996H3.99961C3.50255 21.8996 3.09961 21.4967 3.09961 20.9996V20.4996C3.09961 15.9402 4.18026 12.8906 5.90374 10.8326C7.62757 8.77415 10.0056 7.69438 12.6275 7.09711L12.7052 7.07939V4.99961C12.7052 4.50255 13.1082 4.09961 13.6052 4.09961H14.394C14.891 4.09961 15.294 4.50255 15.294 4.99961V7.07939L15.3718 7.09711C17.9936 7.69438 20.3716 8.77415 22.0955 10.8326C23.819 12.8906 24.8996 15.9402 24.8996 20.4996V20.9996C24.8996 21.4967 24.4967 21.8996 23.9996 21.8996H23.2109C22.7138 21.8996 22.3109 21.4967 22.3109 20.9996V20.4996C22.3109 16.8105 21.4944 14.2747 20.2188 12.5648C18.9424 10.8537 17.2146 9.98061 15.4146 9.60175Z" fill="#1D1E21"/>
</svg>
