<svg width="80" height="80" viewBox="0 0 80 80" fill="none" xmlns="http://www.w3.org/2000/svg">
<path d="M12.4602 26.2579C13.3583 26.6244 14.2333 27.0366 15.2235 27.4947C14.9011 27.8841 14.6938 28.2047 14.4175 28.4796C13.3575 29.5922 12.7716 31.0698 12.7826 32.6026C12.7826 37.8708 12.7826 43.1388 12.7826 48.407C12.7826 49.4148 13.2662 49.9874 14.2794 49.9874H22.6612C22.8625 50.0156 23.0675 49.9962 23.2598 49.9307C23.452 49.8651 23.6258 49.7552 23.7673 49.6101C23.9087 49.465 24.0136 49.2886 24.0735 49.0955C24.1334 48.9023 24.1466 48.6978 24.112 48.4987C24.112 47.6054 24.112 46.7121 24.112 45.7959H55.9817V48.2238C55.9817 49.621 56.3731 49.9874 57.8008 49.9874H65.4228C66.9657 49.9874 67.3341 49.5981 67.3341 48.0635C67.3341 43.7344 67.3341 39.4053 67.3341 35.0762C67.3341 32.3047 67.3341 29.6249 64.732 27.5406C65.8373 27.0595 66.6893 26.6931 67.5183 26.2808C67.8177 26.1205 68.2091 25.8685 68.3012 25.5937C68.3567 25.2399 68.3409 24.8787 68.2549 24.5311C68.1688 24.1834 68.0141 23.8564 67.7999 23.5687C67.5857 23.281 67.3161 23.0385 67.0069 22.8553C66.6976 22.6721 66.3549 22.5518 65.9985 22.5014C64.8175 22.4328 63.6334 22.4328 62.4523 22.5014C60.7713 22.7076 58.1232 19.4321 57.6857 18.745C57.0385 17.6221 56.0856 16.7039 54.9368 16.096C53.7879 15.4882 52.4898 15.2154 51.192 15.3092H50.5242C43.4302 14.8969 36.318 14.8969 29.224 15.3092C24.6186 15.5383 25.3324 15.4925 22.3158 18.9053C21.3487 20.0277 20.5888 21.5853 19.3684 22.1579C17.8979 22.5064 16.3745 22.5762 14.878 22.364C12.5753 22.364 12.276 22.7076 11.7924 24.8378C11.7164 24.9713 11.6737 25.1211 11.6677 25.2744C11.6617 25.4277 11.6927 25.5801 11.7581 25.7191C11.8234 25.8581 11.9213 25.9795 12.0434 26.0732C12.1655 26.1669 12.3084 26.2303 12.4602 26.2579ZM63.1201 30.8389C63.903 30.8389 64.1563 31.0679 64.1793 31.8008C64.1793 34.4349 63.6497 35.3511 61.0477 35.374H55.4981C54.8994 35.374 53.9783 35.374 53.7941 34.641C53.6479 34.242 53.6292 33.8079 53.7405 33.3979C53.8518 32.988 54.0876 32.6221 54.4158 32.3505C54.7278 32.1127 55.09 31.9483 55.475 31.8696L63.1201 30.8389ZM25.8621 19.0886C26.1038 18.782 26.411 18.5326 26.7614 18.3583C27.1118 18.184 27.4968 18.0892 27.8885 18.0808C34.9473 17.5808 42.0309 17.5272 49.0965 17.9204C50.34 17.9204 51.5604 17.9205 52.8039 18.1496C53.259 18.1919 53.6839 18.395 54.0013 18.7222C56.0047 21.0127 59.9884 26.0059 60.1266 26.3953C46.7749 25.6051 33.3878 25.6051 20.0362 26.3953C20.2434 25.9601 23.9738 21.2417 25.7699 19.1345L25.8621 19.0886ZM16.1446 31.2282C16.244 31.0819 16.3839 30.9674 16.5473 30.8983C16.7107 30.8292 16.8907 30.8086 17.0656 30.8389C19.6677 31.1137 22.2698 31.4114 24.8489 31.7779C25.1823 31.828 25.4993 31.955 25.7747 32.1485C26.0501 32.3421 26.2763 32.5971 26.4351 32.893C26.5939 33.1889 26.681 33.5175 26.6895 33.8528C26.6979 34.1882 26.6275 34.5209 26.4838 34.8243C26.3741 34.9712 26.2319 35.0911 26.0682 35.1745C25.9044 35.2579 25.7236 35.3027 25.5396 35.3054C24.888 35.3514 24.2339 35.3514 23.5823 35.3054H18.5164C18.0525 35.2741 17.603 35.1323 17.2058 34.8921C16.8085 34.6519 16.475 34.3203 16.2335 33.9251C15.992 33.53 15.8495 33.083 15.818 32.6216C15.7865 32.1602 15.8669 31.6981 16.0524 31.2741L16.1446 31.2282Z" fill="#1D1E21"/>
<path d="M67.2381 58.7504H56.0714C56.0714 58.1094 56.0714 57.537 56.0714 56.7357L50 60.8337C52.0476 62.2531 54.0238 63.5809 56.119 65.0003C56.119 64.199 56.119 63.6496 56.119 63.0086H67.2381C67.2381 63.6496 67.2381 64.2219 67.2381 64.9774C69.2857 63.558 71.3095 62.2302 73.3333 60.8337C71.2857 59.4143 69.3095 58.1093 67.2381 56.667C67.1667 57.5598 67.2857 58.1323 67.2381 58.7504Z" fill="#1D1E21"/>
<path d="M24.3177 58.699H13.9707C13.9707 58.0826 13.9707 57.4888 13.9707 56.7354C12.0694 58.151 10.2123 59.4524 8.33301 60.8452L13.9707 64.9776C13.9707 64.1557 13.9707 63.5848 13.9707 63.014H24.3177C24.3177 63.6533 24.3177 64.2469 24.3177 65.0003L29.9997 60.8452L24.3177 56.667C24.2735 57.5346 24.3399 58.0826 24.3177 58.699Z" fill="#1D1E21"/>
<path d="M50 55.0003H73.3333V51.667H50V55.0003Z" fill="#1D1E21"/>
<path d="M29.9997 51.667H8.33301V55.0003H29.9997V51.667Z" fill="#1D1E21"/>
</svg>
