<svg width="80" height="80" viewBox="0 0 80 80" fill="none" xmlns="http://www.w3.org/2000/svg">
<path d="M46.5432 41.2035C48.3306 40.9403 50.1568 41.2129 51.7864 41.9861L52.4521 42.3981C53.3909 38.3461 53.5813 34.1594 53.0139 30.0404C52.6429 26.6588 51.2671 23.4621 49.0607 20.8545C48.5246 20.1021 47.8195 19.483 47.0008 19.046C46.1822 18.6091 45.2722 18.3661 44.3426 18.3362C43.413 18.3062 42.489 18.4902 41.6433 18.8736C40.7977 19.2569 40.0534 19.8292 39.4691 20.5455C39.1785 20.7503 38.9317 21.0099 38.7429 21.3095C38.5541 21.6091 38.427 21.9428 38.369 22.2912C38.311 22.6396 38.3232 22.9959 38.4049 23.3396C38.4865 23.6833 38.6361 24.0077 38.8449 24.294C39.4305 25.3122 39.9382 26.3726 40.3637 27.4659C42.6322 34.0613 42.2142 41.2723 39.1986 47.5676C39.0295 47.8547 38.9584 48.1881 38.9959 48.5183C39.0334 48.8486 39.1774 49.1579 39.4066 49.4007C39.9244 50.0606 40.5781 50.6038 41.3242 50.9944C42.0704 51.385 42.8919 51.6141 43.7343 51.6663C42.8287 50.4267 42.3475 48.9327 42.3611 47.4029C42.3611 45.6111 42.3611 45.1373 43.0269 44.54C43.2214 44.3658 43.4547 44.2396 43.7078 44.1716C43.9609 44.1036 44.2266 44.0957 44.4834 44.1487L47.6875 46.4142L45.6069 43.675C45.4998 43.4526 45.439 43.2111 45.4282 42.9649C45.4175 42.7187 45.457 42.4729 45.5444 42.2422C45.6318 42.0115 45.7653 41.8007 45.9369 41.6222C46.1085 41.4437 46.3147 41.3013 46.5432 41.2035Z" fill="#1D1E21"/>
<path d="M47.7869 58.8376L50.1626 56.3959C50.499 55.7801 49.8052 55.6315 49.8052 55.6315L47.0511 54.6761C46.5742 54.5823 46.1138 54.4178 45.6846 54.1878C44.7705 54.4286 43.8121 54.4403 42.8925 54.222C41.9729 54.0037 41.12 53.5619 40.4078 52.935C37.8342 50.7419 36.0402 47.7597 35.2992 44.4422C33.2224 37.3113 33.6532 29.6743 36.5185 22.8278C37.2471 21.0168 38.3845 19.4028 39.8402 18.1144C40.5045 17.477 41.2898 16.9819 42.1486 16.6591C43.0074 16.3363 43.922 16.1924 44.8373 16.2361C45.7526 16.2797 46.6498 16.51 47.4746 16.9131C48.2995 17.3161 49.0351 17.8836 49.637 18.5814C51.9514 21.2782 53.499 24.5581 54.115 28.0723C54.5848 30.6555 54.7821 33.2817 54.7036 35.9069C54.6984 38.4772 54.3447 41.0346 53.6524 43.5079C54.5477 44.1622 55.1518 45.1463 55.3343 46.247L57.3105 43.5292L58.8872 41.7881C59.0734 41.549 59.3205 41.3655 59.602 41.2573C60.3566 35.7557 60.0352 30.1579 58.656 24.7812C57.6369 19.9603 55.2649 15.5376 51.8234 12.0419C49.8449 9.90867 47.1283 8.62782 44.2386 8.46569C41.349 8.30356 38.5086 9.27267 36.3083 11.1714C33.804 13.1765 31.7959 15.7424 30.4428 18.6663C27.9863 24.0821 26.7817 29.9913 26.9201 35.9467C27.0585 41.9021 28.5363 47.7477 31.2417 53.0412C31.536 53.572 31.7673 54.124 32.0406 54.6761C30.4336 53.2479 29.1807 51.4589 28.3826 49.4529C24.852 41.5747 23.9661 32.7475 25.8598 24.3141C26.8612 18.6581 29.6932 13.4978 33.9116 9.64263C34.2059 9.38785 35.2571 8.32627 34.7105 8.3475H29.0763C26.543 8.24174 24.0188 8.71579 21.6925 9.73425C19.3661 10.7527 17.2979 12.2893 15.6424 14.2289C14.0423 16.0989 12.6858 18.1681 11.606 20.3861C8.6232 26.7291 7.64689 33.846 8.8099 40.769C9.23448 43.7726 10.0694 46.7022 11.2907 49.4742C11.4589 49.8776 11.6691 50.281 11.8583 50.6844C12.6437 52.462 13.7324 54.0862 15.0748 55.4829L15.222 55.6741L15.7266 56.2685C16.1935 56.7848 16.4843 57.4387 16.5562 58.1342C16.6281 58.8297 16.4773 59.5302 16.126 60.1328C15.6113 60.7229 15.1272 61.3394 14.6754 61.9799C13.1617 64.4853 16.2521 64.9313 17.2192 64.9525C22.3488 65.0587 34.7736 64.9525 42.2158 64.9525C42.2102 64.7293 42.2523 64.5074 42.3394 64.3022C42.4265 64.097 42.5564 63.9133 42.7203 63.7635L44.8227 61.6403L47.7869 58.8376ZM17.4925 49.0071C17.3003 49.0637 17.0961 49.0637 16.9038 49.0071C16.9038 49.0071 13.8976 46.4167 11.6901 44.0175L13.9396 36.9048C14.9874 39.0975 16.2781 41.1632 17.7868 43.0622C17.4538 45.0248 17.3549 47.0207 17.4925 49.0071Z" fill="#1D1E21"/>
<path d="M66.1769 60.2465C65.9699 60.2253 65.7611 60.2253 65.5541 60.2465L58.2093 53.1799L56.5557 51.5888L53.635 48.7787C53.6564 48.5311 53.6564 48.2823 53.635 48.0348C53.592 47.2916 53.3314 46.5753 52.8833 45.9685C52.6326 45.6049 52.3369 45.2719 52.0028 44.9767C51.2751 44.2687 50.3624 43.7626 49.3608 43.5117C48.3593 43.2607 47.3059 43.2744 46.3117 43.551L50.1774 47.043L47.2137 49.7085L43.4769 46.3611C43.2307 47.4284 43.3015 48.5408 43.6813 49.5712C44.061 50.6016 44.7344 51.5085 45.6245 52.1881C46.2664 52.6159 47.0006 52.8984 47.7721 53.0145C48.1221 53.045 48.4743 53.045 48.8244 53.0145H49.168L53.1195 56.8165L54.0431 57.705L61.4093 64.7924C61.4093 64.937 61.4093 65.0817 61.4093 65.2264C61.5338 66.0125 61.8303 66.7643 62.2793 67.432C62.7282 68.0997 63.3194 68.6683 64.0136 69.0999C64.7078 69.5315 65.4893 69.8165 66.3065 69.9359C67.1236 70.0554 67.9578 70.0065 68.754 69.7928L64.8668 66.3009L67.809 63.532L71.6103 66.8794C72.1257 62.2509 68.9902 60.2465 66.1769 60.2465Z" fill="#1D1E21"/>
<path d="M65.7087 43.7537L60.8606 43.333L59.7004 44.3658L58.333 45.5707L59.1617 46.3166L61.2336 48.1144L58.5195 50.2948L59.8454 51.5188L62.6839 54.1581L65.3565 51.9396L68.6714 54.9997L73.333 50.945L65.8123 43.8685L65.7087 43.7537Z" fill="#1D1E21"/>
<path d="M51.7096 57.4649L50.9426 56.667L48.1773 59.341L47.0873 60.3977L43.333 64.0422L43.555 64.258L43.878 64.5598L47.5919 68.3337L54.9997 60.8938L52.4363 58.2196L51.7096 57.4649Z" fill="#1D1E21"/>
</svg>
