<svg width="28" height="28" viewBox="0 0 28 28" fill="none" xmlns="http://www.w3.org/2000/svg">
<path d="M1.86655 1.8663C1.74287 1.86456 1.62008 1.8874 1.50531 1.93352C1.39054 1.97964 1.28608 2.04811 1.198 2.13495C1.10992 2.2218 1.03998 2.32528 0.992243 2.43938C0.944505 2.55349 0.919922 2.67595 0.919922 2.79964C0.919922 2.92333 0.944505 3.04578 0.992243 3.15989C1.03998 3.274 1.10992 3.37748 1.198 3.46432C1.28608 3.55116 1.39054 3.61963 1.50531 3.66575C1.62008 3.71187 1.74287 3.73472 1.86655 3.73297H3.62019C3.83104 3.73297 4.00697 3.865 4.06681 4.06839L8.04441 17.5908C8.39351 18.7777 9.49133 19.5996 10.7296 19.5996H20.9744C22.2329 19.5996 23.3441 18.7491 23.6759 17.5361L26.1004 8.64573C26.1382 8.50724 26.1436 8.36188 26.1161 8.22097C26.0886 8.08006 26.029 7.94739 25.9419 7.83327C25.8547 7.71916 25.7425 7.62669 25.6138 7.56304C25.4851 7.49939 25.3435 7.46629 25.1999 7.4663H7.01264L5.85874 3.54156C5.85813 3.54156 5.85752 3.54156 5.85691 3.54156C5.56581 2.55215 4.65069 1.8663 3.62019 1.8663H1.86655ZM11.1999 21.4663C10.7048 21.4663 10.23 21.663 9.87995 22.013C9.52988 22.3631 9.33321 22.8379 9.33321 23.333C9.33321 23.828 9.52988 24.3028 9.87995 24.6529C10.23 25.003 10.7048 25.1996 11.1999 25.1996C11.695 25.1996 12.1697 25.003 12.5198 24.6529C12.8699 24.3028 13.0665 23.828 13.0665 23.333C13.0665 22.8379 12.8699 22.3631 12.5198 22.013C12.1697 21.663 11.695 21.4663 11.1999 21.4663ZM20.5332 21.4663C20.0381 21.4663 19.5634 21.663 19.2133 22.013C18.8632 22.3631 18.6665 22.8379 18.6665 23.333C18.6665 23.828 18.8632 24.3028 19.2133 24.6529C19.5634 25.003 20.0381 25.1996 20.5332 25.1996C21.0283 25.1996 21.5031 25.003 21.8531 24.6529C22.2032 24.3028 22.3999 23.828 22.3999 23.333C22.3999 22.8379 22.2032 22.3631 21.8531 22.013C21.5031 21.663 21.0283 21.4663 20.5332 21.4663Z" fill="#1D1E21"/>
</svg>
