<svg width="21" height="21" viewBox="0 0 21 21" fill="none" xmlns="http://www.w3.org/2000/svg">
<path d="M20.9689 0H0V20.966H20.9689V0Z" fill="#FFCB0A"/>
<path d="M15.1712 4.72878L15.5548 4.57944L15.1068 3.47258L12.7643 4.30126L13.06 5.02746H13.0395C13.0395 5.02746 13.06 5.04795 13.06 5.07138L13.1449 5.30564C13.6779 6.64968 15.7657 12.7609 10.6091 13.1679H10.3309C4.83174 12.7433 7.58133 5.75365 7.85951 5.09188L8.2431 4.19585L5.92103 3.32031L5.44959 4.42717L5.85368 4.57651C3.03968 9.45491 3.38228 11.8004 3.38228 11.8004C3.89471 17.2352 9.68964 17.6187 10.287 17.6392H10.3075C10.328 17.6627 10.328 17.6627 10.328 17.6627V17.6392H10.6062V17.6627C10.6062 17.6627 17.0189 17.5338 17.5753 11.8004C17.5812 11.8033 17.9003 9.50176 15.1712 4.72878Z" fill="#1D1E21"/>
<path d="M6.39207 8.03394C6.39207 8.2887 6.15782 8.50245 5.87964 8.50245C5.60146 8.50245 5.39062 8.2887 5.39062 8.03394C5.39062 7.77626 5.60438 7.5625 5.87964 7.5625C6.15782 7.56543 6.39207 7.77919 6.39207 8.03394Z" fill="#FFCB0A"/>
<path d="M5.47508 11.3797C5.47508 11.6373 5.26132 11.8482 4.98314 11.8482C4.70496 11.8482 4.4707 11.6373 4.4707 11.3797C4.4707 11.1015 4.70496 10.8907 4.98314 10.8907C5.26425 10.8877 5.47508 11.1015 5.47508 11.3797Z" fill="#FFCB0A"/>
<path d="M6.67039 14.6365C6.67039 14.8912 6.43614 15.105 6.15796 15.105C5.87978 15.105 5.66895 14.8912 5.66895 14.6365C5.66895 14.3817 5.87978 14.168 6.15796 14.168C6.43614 14.168 6.67039 14.3817 6.67039 14.6365Z" fill="#FFCB0A"/>
<path d="M14.6816 8.03394C14.6816 8.2887 14.9159 8.50245 15.1941 8.50245C15.4898 8.50245 15.727 8.2887 15.727 8.03394C15.727 7.77626 15.4928 7.5625 15.1941 7.5625C14.9159 7.56543 14.6816 7.77919 14.6816 8.03394Z" fill="#FFCB0A"/>
<path d="M15.4287 11.3797C15.4287 11.6373 15.663 11.8482 15.9616 11.8482C16.2398 11.8482 16.4712 11.6373 16.4712 11.3797C16.4712 11.1015 16.2369 10.8907 15.9616 10.8907C15.66 10.8877 15.4287 11.1015 15.4287 11.3797Z" fill="#FFCB0A"/>
<path d="M14.3828 14.6365C14.3828 14.8912 14.6171 15.105 14.9157 15.105C15.1939 15.105 15.4282 14.8912 15.4282 14.6365C15.4282 14.3817 15.1939 14.168 14.9157 14.168C14.6171 14.168 14.3828 14.3817 14.3828 14.6365Z" fill="#FFCB0A"/>
</svg>
