<svg width="36" height="36" viewBox="0 0 36 36" fill="none" xmlns="http://www.w3.org/2000/svg">
<path d="M32.0533 9.47371C31.7159 8.21238 30.7215 7.21798 29.4602 6.88065C27.1722 6.26758 17.9997 6.26758 17.9997 6.26758C17.9997 6.26758 8.82714 6.26758 6.53914 6.88065C5.27781 7.21798 4.28341 8.21238 3.94607 9.47371C3.33301 11.7617 3.33301 18.0009 3.33301 18.0009C3.33301 18.0009 3.33301 24.2401 3.94607 26.5281C4.28341 27.7894 5.27781 28.7838 6.53914 29.1212C8.82714 29.7342 17.9997 29.7342 17.9997 29.7342C17.9997 29.7342 27.1722 29.7342 29.4602 29.1212C30.723 28.7838 31.7159 27.7894 32.0533 26.5281C32.6663 24.2401 32.6663 18.0009 32.6663 18.0009C32.6663 18.0009 32.6663 11.7617 32.0533 9.47371ZM15.0663 21.8113V14.1905C15.0663 13.6258 15.6779 13.2738 16.1663 13.5554L22.7663 17.3658C23.2547 17.6474 23.2547 18.3544 22.7663 18.636L16.1663 22.4464C15.6779 22.7294 15.0663 22.376 15.0663 21.8113Z" fill="#555555"/>
</svg>
