<svg width="180" height="24" viewBox="0 0 180 24" fill="none" xmlns="http://www.w3.org/2000/svg">
<path fill-rule="evenodd" clip-rule="evenodd" d="M113.479 5.21872L112.105 10.1659L117.996 10.1698L118.146 9.67526C119.311 5.38325 116.057 4.50483 114.745 4.50483H110.13C107.894 4.50483 105.101 4.77326 104.13 8.23689C103.304 11.2608 102.819 12.603 103.959 14.1154C104.653 15.0323 106.34 15.2863 108.671 15.7732C110.42 16.1638 110.13 17.2365 109.838 18.3593C109.594 19.1877 109.085 19.6765 108.258 19.6765C107.724 19.6765 107.093 19.3099 107.335 18.4565L107.812 16.6073L101.821 16.6035L101.334 18.4074C100.605 20.7974 102.064 23.1372 105.269 23.1372H108.573C112.848 23.1372 114.959 22.025 116.178 17.9437C116.614 16.4803 117.073 14.7774 116.396 13.5786C115.474 11.9439 111.605 11.4321 110.323 11.0915C109.499 10.8712 109.726 10.0226 109.897 9.19035C110.271 7.82703 110.591 7.48163 111.07 7.06118L113.028 5.12444C113.214 4.99263 113.524 5.0061 113.479 5.21872ZM21.3975 11.3407C23.2294 11.9738 25.7078 13.4881 24.535 17.4742C23.2727 21.7662 20.5509 23.1382 16.0809 23.1382H0L15.0129 8.98734L12.292 18.9385H13.7496C14.8186 18.9385 15.4988 18.2545 15.7903 17.377L20.649 0.0126953C24.1473 0.0126953 28.0236 0.415825 27.2568 5.47561C26.6132 9.72433 23.7913 10.7172 21.4322 11.1627C21.2801 11.1819 21.2801 11.3282 21.3975 11.3407Z" fill="#D0D5D9"/>
<path fill-rule="evenodd" clip-rule="evenodd" d="M20.3963 0L4.12109 15.2198L8.3727 0H20.3963Z" fill="#D0D5D9"/>
<path fill-rule="evenodd" clip-rule="evenodd" d="M42.2636 23.1383L47.4138 4.50682H53.4377L48.2874 23.1383H42.2636ZM122.388 10.0708L124.716 8.21386H119.276L120.297 4.50586H132.685L131.618 8.21386H128.361L124.232 23.1383H118.208L121.24 12.1643C121.461 11.2869 121.734 10.5855 122.388 10.0708ZM158.892 5.21975L153.939 23.1383H159.962L163.849 8.99414C164.626 5.9702 163.169 4.50586 161.03 4.50586H150.731L145.582 23.1383H151.607L155.433 9.18657C155.857 7.79342 156.174 7.43358 156.604 7.03623L158.473 5.10911C158.625 5.01963 158.962 4.95805 158.892 5.21975ZM94.6481 13.2111L95.87 12.4914C96.1557 12.2865 97.0053 11.8487 98.1233 11.8228H100.893L99.8724 15.4326H93.7014L92.9249 18.1651C92.7296 18.8963 93.2655 19.4331 93.8476 19.4331H98.8025L97.7817 23.1392H90.7861C87.5794 23.1392 86.268 20.3597 86.8511 18.4094L89.6201 8.21482C90.4946 4.80026 93.4099 4.50682 95.6439 4.50682H102.931L101.91 8.21482H96.9081C95.9835 8.21482 95.4986 8.84886 95.4014 9.23852L94.3412 12.9408C94.2594 13.1399 94.2815 13.4026 94.6481 13.2111ZM82.1675 5.21975L80.708 10.47L86.7481 10.4604L87.0291 9.43383C88.1952 5.14181 84.6979 4.50682 83.3855 4.50682H78.8184C76.5834 4.50682 73.6681 4.80026 72.7945 8.21482L70.0255 18.4094C69.2972 20.7993 70.7539 23.1392 73.9606 23.1392H83.2403L86.0333 13.0504H80.0066L78.2353 19.4341H76.973C76.439 19.4341 75.855 18.8963 76.1475 18.117L78.5692 9.18849C78.7462 8.6295 79.055 7.59714 79.7391 7.06413L81.7018 5.13701C81.8067 5.01963 82.2377 4.95805 82.1675 5.21975ZM38.5364 5.22456L33.5709 23.1392H39.6438C39.6438 23.1392 40.551 19.6717 41.2466 17.3367C41.8788 15.2152 39.5225 14.0203 39.231 14.0203C38.9385 14.0203 38.9385 13.5806 39.231 13.5806C40.882 13.5315 42.5349 13.239 43.5788 9.38573C44.8074 4.85318 40.8243 4.50778 39.3522 4.50778H30.2188L25.0205 23.1402H31.0934L34.94 9.1933C35.2401 8.09841 35.6846 7.38644 36.1349 7.05643L38.1092 5.13701C38.2102 5.01963 38.596 4.9898 38.5364 5.22456ZM171.716 13.2111L172.938 12.4914C173.223 12.2865 174.075 11.8487 175.191 11.8228H177.961L176.94 15.4326H170.771L169.993 18.1651C169.799 18.8963 170.333 19.4331 170.915 19.4331H175.87L174.849 23.1392H167.855C164.647 23.1392 163.336 20.3597 163.918 18.4094L166.688 8.21482C167.561 4.80026 170.478 4.50682 172.713 4.50682H180L178.979 8.21482H173.975C173.052 8.21482 172.565 8.84886 172.47 9.23852L171.41 12.9408C171.328 13.1399 171.349 13.4026 171.716 13.2111ZM65.4305 4.50682H56.6367L51.4393 23.1392H59.9897C64.2644 23.1392 66.4022 21.6768 67.1315 18.9453L69.7052 9.67821C70.8722 5.38524 66.7418 4.50682 65.4305 4.50682ZM64.9484 5.2159L61.454 17.6725C60.8229 19.7208 59.2691 19.4293 58.5398 19.4293L61.3463 9.18176C61.6753 8.13016 62.0621 7.42877 62.5316 7.04874L64.4828 5.13123C64.6367 4.9898 65.0658 4.9773 64.9484 5.2159ZM142.442 4.50682H138.701C136.467 4.50682 133.551 4.80026 132.678 8.21482L129.908 18.4094C129.179 20.7993 130.637 23.1392 133.843 23.1392H137.002C141.276 23.1392 143.413 21.6768 144.142 18.9453L146.717 9.67821C147.884 5.38524 143.754 4.50682 142.442 4.50682ZM141.912 5.21013L138.269 18.4056C138.026 19.234 137.346 19.6717 136.81 19.6717C136.276 19.6717 135.645 19.283 135.936 18.5008L138.456 9.18368C138.862 7.84056 139.215 7.40472 139.621 7.03142L141.491 5.10429C141.621 4.9898 141.961 5.01482 141.912 5.21013Z" fill="#D0D5D9"/>
</svg>
