<svg width="160" height="31" viewBox="0 0 160 31" fill="none" xmlns="http://www.w3.org/2000/svg">
<path fill-rule="evenodd" clip-rule="evenodd" d="M1.39607 14.6574C2.47922 11.4875 5.50622 8.43684 8.83303 7.94993C11.6183 7.55244 14.2874 7.4332 16.2893 8.94363C15.7671 10.0466 15.1868 11.1993 15.1868 11.1993C14.7466 10.9172 14.2801 10.6809 13.7942 10.4938C13.2265 10.2142 12.5994 10.0858 11.9707 10.1205C11.342 10.1552 10.7319 10.352 10.1966 10.6926L9.78078 11.3882L7.49844 20.3315C7.4618 20.4877 7.45576 20.6499 7.48066 20.8085C7.50556 20.9672 7.56092 21.1192 7.6435 21.2557C8.1754 21.8121 9.0748 21.4643 9.79045 21.5637L10.0322 21.3252L11.5796 15.363L18.2429 15.4226L18.3202 15.5617C17.6723 18.205 17.1114 20.8681 16.386 23.5114L16.241 23.6604L5.77701 23.5114C5.02573 23.5814 4.26996 23.4421 3.58922 23.1081C2.90848 22.7741 2.32792 22.2578 1.90863 21.6134C1.85061 21.196 1.40574 20.9675 1.43476 20.5203H1.3187C0.865071 18.5903 0.891678 16.5741 1.39607 14.6574Z" fill="#D0D5D9"/>
<path fill-rule="evenodd" clip-rule="evenodd" d="M80.0312 14.5977C80.9983 16.5851 82.2361 18.8308 83.1259 20.8183L83.0195 21.1064C80.3696 23.8093 77.7198 27.337 74.1512 28.3108C73.8127 28.3108 73.716 28.0922 73.6387 27.8239C73.6387 25.9557 75.6599 25.0415 76.4239 23.4615C77.1395 22.12 77.304 20.4804 77.9616 19.129C78.4994 17.6496 79.126 16.206 79.8377 14.8063L80.0312 14.5977Z" fill="#D0D5D9"/>
<path fill-rule="evenodd" clip-rule="evenodd" d="M74.3438 29.1157C80.3011 27.019 83.7052 19.9438 89.3144 16.8931C89.8366 16.6348 90.2815 16.1479 90.8327 16.0684C91.0739 16.2812 91.2291 16.5789 91.2679 16.9031C87.3125 19.2283 83.7536 22.9448 80.4364 26.393C78.7767 27.952 76.8525 29.1848 74.7596 30.0299C74.5789 29.758 74.4388 29.46 74.3438 29.1455V29.1157Z" fill="#D0D5D9"/>
<path fill-rule="evenodd" clip-rule="evenodd" d="M78.3672 7.00594C80.5142 5.62468 82.6031 4.4223 84.6437 3.37891C84.3485 4.51602 84.3286 5.71005 84.5856 6.85688L84.4889 7.06556L80.079 9.6492H79.7985C79.243 8.85894 78.7328 8.03608 78.2705 7.1848L78.3672 7.00594Z" fill="#D0D5D9"/>
<path fill-rule="evenodd" clip-rule="evenodd" d="M80.4178 10.6924C81.6738 10.7315 82.9266 10.8443 84.1701 11.0302V11.1992C82.9406 11.9783 81.6461 12.6434 80.3018 13.1866C80.3839 12.3673 80.3839 11.5415 80.3018 10.7222L80.4178 10.6924Z" fill="#D0D5D9"/>
<path fill-rule="evenodd" clip-rule="evenodd" d="M80.708 14.2199C82.1549 13.3077 83.657 12.4912 85.205 11.7754C85.6221 12.9066 86.2834 13.9259 87.1392 14.7565C88.0386 14.4683 88.1933 13.3454 89.0057 12.9182L90.437 15.2136L90.379 15.3726C88.088 16.759 85.9398 18.3804 83.9671 20.212H83.764C82.6906 18.2245 81.6461 16.2371 80.7274 14.2497L80.708 14.2199Z" fill="#D0D5D9"/>
<path fill-rule="evenodd" clip-rule="evenodd" d="M85.2148 7.76074L85.0697 10.0562C83.9183 10.1289 82.7629 10.0957 81.6172 9.95683L81.5205 9.85746L84.973 7.76074H85.2148Z" fill="#D0D5D9"/>
<path fill-rule="evenodd" clip-rule="evenodd" d="M93.7345 7.6416H100.611L102.284 12.9182L102.39 13.0573C103.935 11.3497 105.379 9.54785 106.713 7.66148H110.34V7.89997L103.512 16.734C103.512 16.734 102.361 21.1262 101.723 23.362L101.2 23.5012H94.4308L94.3535 23.362L95.9492 16.6446L93.251 7.88009C93.4247 7.83071 93.5884 7.74995 93.7345 7.6416Z" fill="#D0D5D9"/>
<path fill-rule="evenodd" clip-rule="evenodd" d="M111.674 7.76068L111.828 7.65137H124.111C124.236 7.65137 124.41 7.78055 124.41 7.78055L123.83 10.5331H118.279L118.018 10.9306L117.438 13.9713L117.573 14.0806L120.919 14.0111L120.232 17.1214H116.558C116.558 17.1214 115.977 19.387 115.774 20.5596L115.91 20.659H121.093L121.238 20.7584C121.1 21.6232 120.889 22.4742 120.61 23.3022L120.271 23.4513L107.97 23.501L111.645 7.70105L111.674 7.76068Z" fill="#D0D5D9"/>
<path fill-rule="evenodd" clip-rule="evenodd" d="M25.7572 8.50572C27.2416 7.7513 28.8845 7.38556 30.5396 7.44104C32.1948 7.49651 33.811 7.97149 35.2444 8.82371C36.236 9.75525 36.9524 10.9548 37.3115 12.2851C37.6707 13.6154 37.6581 15.0227 37.2753 16.3461C36.4339 19.5458 33.7744 22.9542 30.5056 23.6597C27.4303 24.4746 23.736 24.1168 21.8018 21.4637C19.9546 19.1583 20.3608 15.3325 21.6857 12.8582C22.6102 11.0076 24.0605 9.48959 25.8442 8.50572H25.7572ZM26.7823 19.9632C26.6881 20.213 26.6564 20.4831 26.6902 20.7487C26.724 21.0143 26.8222 21.267 26.9757 21.4835C27.142 21.5965 27.3291 21.6733 27.5253 21.7092C27.7216 21.7451 27.9229 21.7393 28.1169 21.6922C28.5399 21.5498 28.8998 21.2574 29.1324 20.8674C29.9544 18.1049 30.4089 15.1834 31.1729 12.3712C31.1729 11.616 31.9466 10.6024 31.0279 10.1553C30.714 10.0503 30.3784 10.0346 30.0566 10.1098C29.7348 10.1851 29.4388 10.3484 29.2001 10.5826C28.7215 11.9723 28.3465 13.3974 28.0782 14.8456C27.7204 16.5846 27.2369 18.2639 26.8113 19.9632H26.7823Z" fill="#D0D5D9"/>
<path fill-rule="evenodd" clip-rule="evenodd" d="M43.8039 9.05314C45.2452 8.1147 46.885 7.54626 48.585 7.3958C50.285 7.24533 51.9953 7.51725 53.5715 8.18862C55.8442 9.32144 56.6469 11.8156 56.7629 14.2602C56.7182 16.0591 56.2036 17.8127 55.2729 19.3371C54.3422 20.8616 53.0297 22.1009 51.4729 22.9253L49.4614 23.76C46.5601 24.1376 43.3977 23.9885 41.3281 21.7726C39.3939 19.7852 39.2489 16.4761 40.0999 13.962C40.752 11.9387 42.0593 10.2062 43.8039 9.05314ZM46.0572 21.1465C46.2255 21.279 46.421 21.3703 46.6288 21.4133C46.8366 21.4564 47.0513 21.4501 47.2564 21.395C47.699 21.2125 48.0699 20.8839 48.3105 20.4609L49.6645 14.6676C49.6891 14.3512 49.7574 14.04 49.8675 13.7434C50.032 12.541 50.6412 11.5275 50.5445 10.2953C50.3898 10.1363 50.2157 9.74874 49.9739 9.70899C49.6965 9.62826 49.4031 9.62531 49.1242 9.70044C48.8453 9.77558 48.5911 9.92607 48.3879 10.1363C47.3628 13.1174 46.9179 16.3171 46.1152 19.3877C46.1152 19.964 45.7284 20.5901 46.0475 21.1465H46.0572Z" fill="#D0D5D9"/>
<path fill-rule="evenodd" clip-rule="evenodd" d="M60.8534 7.77125L61.25 7.67188H71.4335C72.2867 7.8911 73.0751 8.32053 73.7305 8.92304C74.386 9.52555 74.8888 10.283 75.1955 11.13C76.2786 14.6179 74.9343 18.1555 72.7777 20.7888C72.0196 21.6397 71.1 22.3221 70.0754 22.7938C69.0508 23.2655 67.943 23.5165 66.8204 23.5314H57.2559C57.2559 23.5314 60.1571 10.6132 60.8534 7.79112V7.77125ZM64.5768 20.9975C65.0603 21.3254 65.6309 21.0472 66.1531 21.067C66.6754 21.0869 66.8301 20.5106 67.0719 20.123C67.0719 20.123 69.5863 11.0902 69.1414 10.4543C68.6869 9.97728 68.0196 10.1561 67.2073 10.1561C67.1519 10.3153 67.1067 10.4779 67.0719 10.6431L64.5768 20.9975Z" fill="#D0D5D9"/>
<path fill-rule="evenodd" clip-rule="evenodd" d="M86.7717 1.79861C89.0638 -0.188804 92.3132 0.467042 95.3402 0.417357C99.2496 0.860619 103.201 0.720042 107.071 0C107.053 0.596107 106.876 1.17574 106.561 1.67652C106.246 2.17729 105.803 2.58024 105.282 2.842C102.651 4.29281 99.3246 3.83571 96.3363 3.61709V3.79596L97.5645 4.29281C97.5645 4.70023 97.11 4.92878 96.8102 5.08778C96.3266 5.29645 95.7464 5.27658 95.2725 5.47532C95.4079 5.66413 95.8044 5.47532 95.7464 5.86287C95.2846 6.30322 94.7037 6.5893 94.0804 6.68333C93.4571 6.77736 92.8206 6.67492 92.2552 6.38953L92.1198 6.54853C92.2357 7.54797 92.0428 8.55955 91.5685 9.44021C91.1914 9.49983 90.9689 9.15204 90.6788 9.00298C90.437 9.61908 90.5337 10.4836 90.0695 10.9904C89.673 10.9904 89.3539 10.4339 88.9961 10.2948C88.6566 11.3219 88.185 12.2978 87.5938 13.1964C86.8781 13.1964 86.5203 12.2027 86.2205 11.6761C85.9282 10.4223 85.8887 9.12032 86.1044 7.85028C85.6879 7.29303 85.4066 6.6418 85.2838 5.95056C85.161 5.25932 85.2003 4.54797 85.3985 3.87546C85.6187 3.04495 86.0893 2.30747 86.7427 1.7688L86.7717 1.79861ZM87.9129 6.05167L86.9458 5.94236L87.0232 6.13117C87.7195 6.19079 87.5938 7.12487 88.1644 7.30374L87.9032 6.05167L88.3868 3.73634C88.5735 3.84443 88.7806 3.91012 88.9942 3.92897C89.2077 3.94783 89.4227 3.91941 89.6247 3.84564C89.9632 3.30904 90.6691 3.35873 91.2494 3.34879C91.8296 3.33885 91.6846 2.28552 92.2939 2.55383C92.5163 2.4942 92.8934 2.33521 92.8741 2.12653C92.2358 2.4942 91.5008 1.55018 91.1043 2.36502C90.6717 2.63739 90.1704 2.77222 89.6634 2.75257C89.5658 3.02661 89.3936 3.26602 89.1672 3.44222C88.9409 3.61843 88.6699 3.72398 88.3868 3.74627L87.9032 6.06161L87.9129 6.05167Z" fill="#D0D5D9"/>
<path fill-rule="evenodd" clip-rule="evenodd" d="M130.909 7.62178H136.992L137.234 7.89008L138.82 23.5112C138.82 23.5906 131.925 23.5112 131.925 23.5112L131.654 21.0468H126.393L124.845 23.4813H121.731C121.731 23.4813 129.468 9.95699 130.909 7.58203V7.62178ZM128.066 18.2147H131.257L130.793 13.4747L128.066 18.2147Z" fill="#D0D5D9"/>
<path fill-rule="evenodd" clip-rule="evenodd" d="M144.072 7.80042L144.265 7.65137H156.373C157.022 7.73316 157.642 7.97818 158.176 8.36472C158.711 8.75126 159.145 9.26738 159.439 9.86733C159.82 10.6202 160.012 11.4586 159.999 12.307C159.985 13.1554 159.766 13.9869 159.362 14.7266C158.68 15.911 157.727 16.9069 156.586 17.6282C156.934 19.4467 157.35 21.2652 157.766 23.1234C157.824 23.3718 157.698 23.5308 157.486 23.5109H150.716L150.474 23.3718L149.256 18.9001C149.149 18.7113 148.937 18.8107 148.772 18.7908L148.569 19.079L147.467 23.3221L147.263 23.4811H140.387C140.343 23.3432 140.329 23.1969 140.346 23.0527C140.362 22.9085 140.41 22.7698 140.484 22.6464C141.683 17.6779 142.95 12.7093 144.062 7.7408L144.072 7.80042ZM149.449 15.8991C149.831 16.1089 150.272 16.1756 150.697 16.0879C151.07 15.9078 151.366 15.5931 151.528 15.2035L152.495 11.338C152.576 11.1401 152.6 10.9226 152.564 10.7113C152.528 10.4999 152.434 10.3036 152.292 10.1456C152.063 10.0327 151.812 9.97411 151.557 9.97411C151.303 9.97411 151.052 10.0327 150.822 10.1456L149.449 15.8991Z" fill="#D0D5D9"/>
</svg>
