<svg width="159" height="29" viewBox="0 0 159 29" fill="none" xmlns="http://www.w3.org/2000/svg">
<path d="M47.2556 3.18262C47.2047 3.33538 45.6516 8.45302 45.6516 8.45302H40.6612L42.2653 3.18262H36.5366C36.5366 3.18262 32.2082 17.3134 32.1318 17.5935H37.8605C37.9115 17.4407 39.7192 11.5592 39.7192 11.5592H44.7095C44.7095 11.5592 42.9527 17.3389 42.8509 17.5935H48.5796C48.6305 17.4407 52.9079 3.46269 52.9843 3.18262H47.2556Z" fill="#D0D5D9"/>
<path d="M77.3504 4.73594L77.0958 4.93962L77.6305 3.18282H71.9018C71.9018 3.18282 67.5735 17.3136 67.4971 17.5937H73.2258C73.2767 17.4409 75.8992 8.91152 75.8992 8.91152C76.2556 7.71486 77.2231 6.90011 78.2416 6.90011H79.7183C80.1766 6.90011 80.533 7.05287 80.7622 7.3584C80.9149 7.58755 81.0168 7.86762 81.0168 8.19862C81.0168 8.42776 80.9659 8.70783 80.8895 8.9879C80.8895 8.9879 78.598 16.5243 78.2416 17.6191H83.9448C83.9957 17.4664 87.051 7.46025 87.051 7.46025C87.1274 7.18018 87.2802 6.6455 87.2802 6.05991C87.2802 5.44884 87.1529 4.78686 86.72 4.20126C86.0835 3.33559 84.9632 2.90275 83.3846 2.90275C80.3039 2.87729 78.2925 4.04849 77.3504 4.73594Z" fill="#D0D5D9"/>
<path d="M54.6898 4.20091C54.7407 4.37914 55.5045 7.05253 55.5809 7.25622C56.0901 7.05253 58.2288 6.21232 60.0875 6.21232C61.8698 6.21232 62.8627 6.44147 63.2446 6.95069C63.4483 7.2053 63.4738 7.53629 63.3465 7.94366L62.99 9.11486L62.8882 9.0894C60.4694 8.30011 58.6362 8.32558 58.6362 8.32558C56.7267 8.32558 54.9953 8.80933 53.6714 9.70046C52.3728 10.5661 51.4563 11.7883 51.0234 13.265C50.616 14.5635 50.7179 15.6583 51.3035 16.4476C51.9909 17.3642 53.3149 17.8479 55.1735 17.8479C56.9303 17.8479 58.8399 17.3896 60.5458 16.5749L60.7749 16.4731C60.7749 16.4731 60.4949 17.3642 60.4439 17.5679H66.1217C66.1726 17.4151 69.177 7.61267 69.177 7.61267C69.3043 7.20529 69.3552 6.79793 69.3552 6.44147C69.3552 5.80495 69.177 5.24481 68.8206 4.78652C67.904 3.53894 65.7907 2.87695 62.6845 2.87695C58.8908 2.87695 55.3263 3.99723 54.6898 4.20091ZM59.2218 11.3045C59.6547 11.3045 61.1568 11.33 62.0734 11.7628L62.1498 11.8137L61.5133 13.9015L61.4624 13.927C60.5458 14.3598 59.2727 14.6399 58.2543 14.6399C57.2868 14.6399 56.6248 14.4107 56.2938 14.0033C56.1665 13.8251 56.0901 13.6214 56.0901 13.3923C56.0901 13.265 56.1156 13.1122 56.1665 12.9594C56.523 11.9156 57.6432 11.3045 59.2218 11.3045Z" fill="#D0D5D9"/>
<path d="M99.6538 3.10645C99.6029 3.15737 94.1797 7.43479 94.1797 7.43479L95.5037 3.10645H89.8004C89.8004 3.10645 85.4212 17.4664 85.3193 17.721H91.048C91.099 17.5682 92.8558 11.7886 92.8558 11.7886C92.8558 11.7886 96.9549 17.6446 97.0313 17.721H103.142C102.913 17.39 97.897 10.2355 97.897 10.2355C97.897 10.2355 106.121 3.4629 106.554 3.10645H99.6538Z" fill="#D0D5D9"/>
<path d="M102.047 10.4134C101.436 12.4503 101.666 14.3599 102.709 15.7602C103.906 17.3643 106.019 18.2554 108.718 18.2554C115.032 18.2554 118.597 15.8111 120.277 10.3371C120.888 8.30019 120.659 6.39063 119.615 4.99028C118.419 3.38624 116.306 2.49512 113.607 2.49512C107.802 2.49512 103.575 5.37219 102.047 10.4134ZM107.623 13.6215C107.114 12.9341 107.114 11.8902 107.572 10.3625C108.133 8.50388 109.431 6.31425 112.359 6.31425C113.479 6.31425 114.243 6.59431 114.651 7.15445C115.16 7.81643 115.16 8.88579 114.701 10.4134C114.141 12.2721 112.843 14.4617 109.915 14.4617C108.82 14.4617 108.056 14.1816 107.623 13.6215Z" fill="#D0D5D9"/>
<path d="M121.118 10.4134C120.507 12.4503 120.736 14.3599 121.78 15.7602C122.976 17.3643 125.09 18.2554 127.788 18.2554C134.103 18.2554 137.667 15.8111 139.348 10.3371C139.959 8.30019 139.73 6.39063 138.686 4.99028C137.489 3.38624 135.35 2.49512 132.677 2.49512C126.872 2.49512 122.645 5.37219 121.118 10.4134ZM131.455 6.28878C132.575 6.28878 133.339 6.56885 133.746 7.12899C134.256 7.79097 134.256 8.86033 133.797 10.388C133.237 12.2466 131.939 14.4363 129.011 14.4363C127.89 14.4363 127.127 14.1562 126.719 13.5706C126.21 12.8831 126.21 11.8392 126.668 10.3116C127.228 8.50388 128.527 6.28878 131.455 6.28878Z" fill="#D0D5D9"/>
<path d="M152.281 2.97949C152.23 3.03041 146.73 7.68975 146.73 7.68975L148.156 2.97949H142.428C142.428 2.97949 137.972 17.5686 137.87 17.8232H143.599C143.65 17.6704 145.457 11.789 145.457 11.789C145.457 11.789 149.888 17.7468 149.939 17.8232H156.202C155.947 17.4922 150.575 10.2868 150.575 10.2868C150.575 10.2868 158.341 3.33594 158.773 2.97949H152.281Z" fill="#D0D5D9"/>
<path d="M33.8375 0.712909L33.7611 0H28.9235C29.4837 5.72869 25.5372 12.1194 19.9104 13.647C19.8849 13.647 19.8085 13.647 19.8085 13.5706C19.8085 13.5452 19.8085 13.5197 19.834 13.4943C24.5188 10.3626 26.9885 5.32132 26.5811 0H21.8454C22.0491 4.65934 18.9174 8.91131 14.1308 10.6426C14.1053 10.6426 14.0289 10.6426 14.0289 10.5663C14.0289 10.5408 14.0544 10.5153 14.0799 10.4899C17.5425 8.12202 19.6303 4.58295 19.503 0H14.6909C14.64 5.49955 9.70059 9.34414 0 9.34414C0.127304 9.42052 0.280069 9.4969 0.407374 9.57329C6.72167 13.0105 10.0061 15.1492 14.64 18.9174C15.3529 19.5285 16.3459 19.8595 17.3643 19.834C29.9165 18.9938 34.4231 7.96925 33.8375 0.712909Z" fill="#D0D5D9"/>
<path d="M62.8371 20.4701C62.8371 20.4701 62.3788 21.9723 62.2515 22.3287C61.6659 21.9723 60.953 21.7941 60.0109 21.7941C57.8722 21.7941 56.1663 22.8634 55.6571 24.4929C55.428 25.2058 55.5043 25.8169 55.8353 26.2752C56.2682 26.8608 57.1338 27.1663 58.305 27.1663C59.2216 27.1663 60.0618 26.9881 60.902 26.6571C60.8766 26.7335 60.7747 27.0899 60.7747 27.0899H62.4552L64.6448 19.9863L62.8371 20.4701ZM57.363 25.715C57.1593 25.4604 57.1338 25.104 57.2866 24.6202C57.6685 23.3981 58.5596 22.787 59.9345 22.787C60.9275 22.787 61.5895 23.0671 61.9205 23.3726C61.8696 23.5763 61.284 25.435 61.233 25.5623C60.4437 25.9951 59.629 26.1988 58.7888 26.1988C58.1013 26.1733 57.6176 26.0206 57.363 25.715Z" fill="#D0D5D9"/>
<path d="M66.7324 22.2532C66.7324 22.2278 66.8343 21.8968 66.8343 21.8968H65.1284L63.5498 27.0399H65.2302L66.1468 24.1119C66.4014 23.2717 67.2162 22.7879 68.3619 22.7879C68.9984 22.7879 69.3549 22.8897 69.6095 22.9661L69.7368 23.017L70.5261 21.9986L70.2206 21.9222C69.8896 21.8458 69.4313 21.7949 68.7947 21.7949C68.0818 21.7949 67.318 21.9731 66.7324 22.2532Z" fill="#D0D5D9"/>
<path d="M70.9079 20.6999C70.857 20.8527 70.8825 20.98 70.9843 21.1073C71.1371 21.311 71.4681 21.4383 71.9009 21.4383C72.4101 21.4383 72.9957 21.2092 73.123 20.8272C73.174 20.6745 73.1231 20.5217 73.0467 20.4199C72.8939 20.2162 72.5629 20.0889 72.2065 20.0889C71.5699 20.0889 71.0353 20.3435 70.9079 20.6999ZM70.8316 21.8966L69.2275 27.0397H70.9334L72.512 21.8966H70.8316Z" fill="#D0D5D9"/>
<path d="M79.2345 21.8965C79.2345 21.8965 75.7718 25.6392 75.7464 25.6902C75.5681 25.0791 74.6006 21.8965 74.6006 21.8965H72.8184L74.7025 27.0396H76.0519L81.1186 21.8965H79.2345Z" fill="#D0D5D9"/>
<path d="M81.4237 20.7C81.3727 20.8528 81.3982 20.9801 81.5 21.1074C81.6528 21.3111 81.9838 21.4384 82.4166 21.4384C82.9258 21.4384 83.5114 21.2092 83.6387 20.8273C83.6897 20.6745 83.6387 20.5218 83.5624 20.3945C83.4096 20.1908 83.0786 20.0635 82.7222 20.0635C82.0602 20.0889 81.5255 20.3435 81.4237 20.7ZM81.3218 21.8967L79.7178 27.0398H81.4237L83.0022 21.8967H81.3218Z" fill="#D0D5D9"/>
<path d="M85.7265 22.2787C85.7519 22.2278 85.8538 21.8968 85.8538 21.8968H84.1479L82.5693 27.0399H84.2498L85.1409 24.1119C85.421 23.2462 86.3375 22.7624 87.6615 22.7624C88.4253 22.7624 88.9091 22.8897 89.0873 23.1443C89.2146 23.3226 89.2401 23.6026 89.1128 23.9846L88.1707 27.0399H89.8511L90.7932 24.01C90.9714 23.4499 90.9205 22.9661 90.6404 22.6097C90.2331 22.075 89.3674 21.7949 88.0434 21.7949C87.2287 21.7949 86.4139 21.9731 85.7265 22.2787Z" fill="#D0D5D9"/>
<path d="M91.2266 24.4932C91.1247 24.8242 91.0738 25.1297 91.0993 25.3843C91.1247 25.7153 91.2266 26.0208 91.4048 26.2754C91.8376 26.861 92.7033 27.1666 93.8745 27.1666C94.7911 27.1666 95.6313 26.9883 96.4715 26.6573C96.1405 27.4976 95.4021 27.8795 92.5251 27.9304H92.245L92.6778 28.8215H92.8051C94.511 28.7961 95.7331 28.5924 96.5988 28.2359C97.439 27.8795 97.9737 27.2939 98.2283 26.5046L99.6541 21.9216H97.9482C97.9482 21.9216 97.8718 22.2017 97.8209 22.3545C97.2353 21.998 96.5224 21.8198 95.5804 21.8198C93.4417 21.7943 91.7358 22.8637 91.2266 24.4932ZM92.9324 25.7153C92.7288 25.4607 92.7288 25.1042 92.8561 24.6205C93.238 23.3984 94.1291 22.7873 95.504 22.7873C96.497 22.7873 97.1589 23.0674 97.4899 23.3729C97.439 23.5766 96.8534 25.4352 96.8025 25.5625C96.0132 25.9954 95.1985 26.199 94.3582 26.199C93.6708 26.1736 93.1616 26.0208 92.9324 25.7153Z" fill="#D0D5D9"/>
<path d="M102.531 24.3913C102.454 24.6969 102.403 24.9515 102.403 25.2315C102.429 25.5625 102.531 25.8681 102.734 26.1227C103.447 27.0393 104.975 27.1411 105.586 27.1411C106.961 27.1411 107.826 26.9629 109.049 26.581L109.329 26.5046L108.59 25.6898L108.463 25.7153C107.521 26.0208 106.884 26.1736 105.891 26.1736C105.128 26.1736 104.567 25.9954 104.287 25.6644C104.16 25.5116 104.084 25.3334 104.084 25.1042C104.084 25.0279 104.084 24.9769 104.084 24.9006H110.042L110.093 24.8242C110.169 24.7223 110.22 24.595 110.271 24.4168C110.347 24.1622 110.398 23.9076 110.373 23.6784C110.347 23.3474 110.245 23.0674 110.067 22.8128C109.583 22.1762 108.59 21.8198 107.19 21.8198C104.898 21.7943 103.014 22.8382 102.531 24.3913ZM107.012 22.7618C107.801 22.7618 108.361 22.9401 108.616 23.2456C108.718 23.3729 108.794 23.5511 108.794 23.7294C108.794 23.8057 108.794 23.8821 108.794 23.933H104.44C104.898 23.1947 105.815 22.7618 107.012 22.7618Z" fill="#D0D5D9"/>
<path d="M117.655 22.5587C117.324 22.1768 116.687 21.8203 115.389 21.8203C114.574 21.8203 113.836 21.9731 113.25 22.2786C113.25 22.2531 113.352 21.9222 113.352 21.9222H111.646L110.067 27.0653H111.748L112.639 24.1627C112.919 23.2716 113.683 22.7878 114.93 22.7878C115.592 22.7878 116.025 22.9151 116.203 23.1443C116.331 23.3225 116.356 23.628 116.229 24.0354L115.287 27.0907H116.993L117.884 24.1882C118.164 23.297 118.928 22.8133 120.175 22.8133C120.863 22.8133 121.27 22.9151 121.448 23.1443C121.576 23.3225 121.601 23.628 121.474 24.0354L120.532 27.0907H122.238L123.18 24.0609C123.358 23.4753 123.307 22.9661 123.027 22.6096C122.645 22.1004 121.83 21.8458 120.608 21.8458C119.106 21.7949 118.266 22.1768 117.655 22.5587Z" fill="#D0D5D9"/>
<path d="M125.394 22.4569C124.452 22.9152 123.841 23.6027 123.587 24.4174C123.383 25.0539 123.459 25.6395 123.816 26.0978C124.325 26.7853 125.42 27.1672 126.897 27.1672C128.017 27.1672 129.112 26.938 129.977 26.5052C130.919 26.0214 131.53 25.3595 131.785 24.5447C131.989 23.9082 131.912 23.3481 131.556 22.8898C131.047 22.2023 129.952 21.8459 128.45 21.8459C127.304 21.7949 126.235 22.0241 125.394 22.4569ZM125.343 25.6141C125.14 25.3595 125.114 24.9776 125.242 24.5193C125.573 23.399 126.667 22.7625 128.246 22.7625C129.112 22.7625 129.723 22.9661 130.003 23.3226C130.207 23.5772 130.232 23.9337 130.105 24.392C129.774 25.5122 128.628 26.1742 127.075 26.1742C126.235 26.1742 125.624 25.9705 125.343 25.6141Z" fill="#D0D5D9"/>
<path d="M133.975 20.4702C133.975 20.4702 133.593 21.6923 133.542 21.9214H132.422L132.142 22.8889H133.236C133.109 23.3218 132.32 25.8424 132.32 25.8424C132.269 26.0206 132.243 26.1734 132.243 26.3007C132.243 26.4535 132.294 26.6062 132.396 26.7335C132.625 27.0391 133.109 27.1918 133.873 27.1918C134.535 27.1918 135.044 27.1409 135.63 27.0136L135.706 26.9881L136.19 25.9697L135.808 26.0461C135.401 26.1225 135.07 26.1734 134.535 26.1734C134.077 26.1734 134 26.097 133.975 26.0715C133.975 26.0715 133.949 26.0206 134 25.8424C134 25.8424 134.739 23.4491 134.917 22.8635H137.132L137.412 21.896H135.171C135.299 21.5141 135.757 19.9609 135.757 19.9609L133.975 20.4702Z" fill="#D0D5D9"/>
<path d="M138.354 20.6999C138.303 20.8527 138.329 20.98 138.431 21.1073C138.583 21.311 138.914 21.4383 139.347 21.4383C139.857 21.4383 140.442 21.2092 140.569 20.8272C140.62 20.6745 140.569 20.5217 140.493 20.4199C140.34 20.2162 140.009 20.0889 139.653 20.0889C138.991 20.0889 138.456 20.3435 138.354 20.6999ZM138.252 21.8966L136.648 27.0397H138.354L139.933 21.8966H138.252Z" fill="#D0D5D9"/>
<path d="M141.639 22.4569C140.696 22.9152 140.085 23.6027 139.831 24.4174C139.627 25.0539 139.704 25.6395 140.06 26.0978C140.569 26.7853 141.664 27.1672 143.141 27.1672C144.261 27.1672 145.356 26.938 146.221 26.5052C147.164 26.0214 147.775 25.3595 148.029 24.5447C148.233 23.9082 148.157 23.3226 147.8 22.8898C147.291 22.2023 146.196 21.8459 144.694 21.8459C143.574 21.7949 142.504 22.0241 141.639 22.4569ZM144.516 22.7625C145.381 22.7625 145.992 22.9661 146.272 23.3226C146.476 23.5772 146.502 23.9337 146.374 24.392C146.043 25.5122 144.898 26.1742 143.344 26.1742C142.504 26.1742 141.893 25.9705 141.613 25.6141C141.511 25.4613 141.435 25.3085 141.435 25.1049C141.435 24.9266 141.46 24.7484 141.511 24.5193C141.842 23.4244 142.937 22.7625 144.516 22.7625Z" fill="#D0D5D9"/>
<path d="M151.009 22.2787C151.034 22.2278 151.136 21.8968 151.136 21.8968H149.43L147.852 27.0399H149.532L150.423 24.1119C150.805 22.8897 152.307 22.7624 152.944 22.7624C153.708 22.7624 154.191 22.8897 154.37 23.1443C154.497 23.3226 154.522 23.6026 154.395 23.9846L153.453 27.0399H155.159L156.101 24.01C156.279 23.4499 156.228 22.9661 155.948 22.6097C155.541 22.075 154.675 21.7949 153.351 21.7949C152.485 21.7949 151.671 21.9731 151.009 22.2787Z" fill="#D0D5D9"/>
</svg>
