<svg width="204" height="36" viewBox="0 0 204 36" fill="none" xmlns="http://www.w3.org/2000/svg">
<path d="M26.6691 18.6162C22.0511 18.6162 18.2412 22.5292 18.2412 27.2723C18.2412 32.0154 22.0511 35.9284 26.6691 35.9284C31.2871 35.9284 35.097 32.0154 35.097 27.2723C35.097 22.5292 31.4026 18.6162 26.6691 18.6162ZM26.6691 32.2526C24.0137 32.2526 21.8202 29.9996 21.8202 27.1537C21.8202 24.3079 24.0137 22.0549 26.6691 22.0549C29.3245 22.0549 31.518 24.3079 31.518 27.1537C31.6334 29.9996 29.4399 32.2526 26.6691 32.2526Z" fill="#231F20"/>
<path d="M8.42786 18.6162C3.80985 18.6162 0 22.5292 0 27.2723C0 32.0154 3.80985 35.9284 8.42786 35.9284C13.0459 35.9284 16.8558 32.0154 16.8558 27.2723C16.8558 22.5292 13.0459 18.6162 8.42786 18.6162ZM8.42786 32.2526C5.7725 32.2526 3.57897 29.9996 3.57897 27.1537C3.57897 24.3079 5.7725 22.0549 8.42786 22.0549C11.0832 22.0549 13.2768 24.3079 13.2768 27.1537C13.2768 29.9996 11.0832 32.2526 8.42786 32.2526Z" fill="#231F20"/>
<path d="M26.6691 0C22.0511 0 18.2412 3.91303 18.2412 8.65611C18.2412 13.3992 22.0511 17.3123 26.6691 17.3123C31.2871 17.3123 35.097 13.3992 35.097 8.65611C35.097 3.79445 31.4026 0 26.6691 0ZM26.6691 13.6364C24.0137 13.6364 21.8202 11.3834 21.8202 8.53756C21.8202 5.69171 24.0137 3.43873 26.6691 3.43873C29.3245 3.43873 31.518 5.69171 31.518 8.53756C31.518 11.3834 29.4399 13.6364 26.6691 13.6364Z" fill="#231F20"/>
<path d="M8.42786 0C3.80985 0 0 3.91303 0 8.65611C0 13.3992 3.80985 17.3123 8.42786 17.3123C13.0459 17.3123 16.8558 13.3992 16.8558 8.65611C16.8558 3.79445 13.0459 0 8.42786 0ZM8.42786 13.6364C5.7725 13.6364 3.57897 11.3834 3.57897 8.53756C3.57897 5.69171 5.7725 3.43873 8.42786 3.43873C11.0832 3.43873 13.2768 5.69171 13.2768 8.53756C13.2768 11.3834 11.0832 13.6364 8.42786 13.6364Z" fill="#231F20"/>
<path fill-rule="evenodd" clip-rule="evenodd" d="M49.6436 9.01164H57.1479C58.1869 9.01164 58.9951 10.0788 58.9951 12.569C58.9951 15.2962 58.0715 16.1263 57.1479 16.1263H49.6436V9.01164ZM61.3041 20.5136C67.1921 20.0393 69.0392 15.8891 69.0392 11.0274C69.0392 5.45431 66.7303 1.18555 60.1496 1.18555H40.7539V34.7429H49.6436V23.5966H52.0681C53.9153 23.5966 55.647 25.6124 60.6114 34.7429H71.6946C65.3448 23.478 63.4976 21.3436 61.3041 20.5136Z" fill="#E5221D"/>
<path fill-rule="evenodd" clip-rule="evenodd" d="M93.3986 1.18555C96.2849 11.3832 101.249 26.0867 104.597 34.7429H94.6686C93.9759 33.2013 93.1677 30.8298 92.3596 28.3397H79.66C78.9673 30.8298 78.3901 33.2013 77.9283 34.7429H68.2305C70.6549 25.9681 76.1965 10.0788 79.66 1.18555H93.3986ZM86.7025 9.24878H85.548C84.6244 11.976 83.3545 16.0077 82.0845 20.2765H89.9351C88.5497 16.0077 87.3952 11.976 86.7025 9.24878Z" fill="#E5221D"/>
<path fill-rule="evenodd" clip-rule="evenodd" d="M103.443 1.18555V34.7429H118.221C128.727 34.7429 133.807 30.8298 133.807 17.7863C133.807 4.74286 128.727 1.18555 118.221 1.18555H103.443ZM124.34 17.7863C124.34 25.731 123.07 26.4425 117.066 26.4425H112.333V9.13023H117.066C123.07 9.2488 124.34 9.84168 124.34 17.7863Z" fill="#E5221D"/>
<path d="M145.005 1.18555H136.115V34.7429H145.005V1.18555Z" fill="#E5221D"/>
<path fill-rule="evenodd" clip-rule="evenodd" d="M167.287 1.18555H176.293V26.0867C176.293 33.4385 170.52 35.4543 161.977 35.4543C153.433 35.4543 147.776 33.5571 147.776 26.0867V1.18555H156.781V24.0709C156.781 25.8496 157.936 26.7982 161.977 26.7982C166.017 26.7982 167.287 25.8496 167.287 24.0709V1.18555Z" fill="#E5221D"/>
<path fill-rule="evenodd" clip-rule="evenodd" d="M203.423 2.01558C200.883 0.948383 196.727 0.355469 192.455 0.355469C182.18 0.355469 177.678 3.67563 177.678 12.3318C177.678 18.6163 180.91 20.9879 187.491 21.8179C193.494 22.5294 194.187 23.0037 194.187 24.6638C194.187 26.3239 193.494 26.9168 188.876 26.9168C185.066 26.9168 181.834 26.3239 179.756 25.8495L178.024 33.6756C180.679 34.7428 184.72 35.3357 189.107 35.3357C199.96 35.3357 204 32.727 204 24.0709C204 17.6677 200.768 14.7033 193.379 13.7547C187.953 13.0432 187.376 12.6875 187.376 10.9089C187.376 9.60451 188.068 8.77445 192.571 8.77445C196.496 8.77445 199.729 9.24875 201.807 9.84164L203.423 2.01558Z" fill="#E5221D"/>
</svg>
