<svg width="197" height="22" viewBox="0 0 197 22" fill="none" xmlns="http://www.w3.org/2000/svg">
<path d="M33.4723 6.59867C35.3996 6.59867 36.1836 7.48067 36.1836 8.91801C36.1836 11.172 35.1056 13.2953 34.8116 13.8507C33.9623 15.386 33.1456 15.7453 31.0876 15.7453C29.9443 15.7453 28.5396 15.288 28.5396 13.23C28.5396 12.25 29.193 9.99601 29.9443 8.59134C30.957 6.69667 32.1003 6.59867 33.4723 6.59867ZM19.6543 14.602C19.6543 20.8413 24.293 21.0373 30.4996 21.0373C34.485 21.0373 39.7443 20.776 41.933 17.3133C44.1216 13.9487 45.3303 9.27734 45.3303 6.43534C45.3303 0.196004 39.5483 0 34.485 0C29.389 0 25.2403 0.490006 22.823 4.34467C20.8303 7.51334 19.6543 11.76 19.6543 14.602Z" fill="#D0D5D9"/>
<path d="M49.9372 15.9417L45.7559 0.555664H55.0985L56.1765 9.34299H56.2745L61.3705 0.555664H71.2685L56.7645 20.4823H46.5399L49.9372 15.9417Z" fill="#D0D5D9"/>
<path d="M80.4147 6.59867C82.342 6.59867 83.126 7.48067 83.126 8.91801C83.126 11.172 82.048 13.2953 81.754 13.8507C80.9047 15.386 80.088 15.7453 78.03 15.7453C76.8867 15.7453 75.482 15.288 75.482 13.23C75.482 12.25 76.1353 9.99601 76.8867 8.59134C77.8993 6.69667 79.0427 6.59867 80.4147 6.59867ZM66.5967 14.602C66.5967 20.8413 71.2353 21.0373 77.442 21.0373C81.4273 21.0373 86.6867 20.776 88.8753 17.3133C91.064 13.9487 92.2727 9.27734 92.2727 6.43534C92.2727 0.196004 86.4907 0 81.4273 0C76.3313 0 72.1827 0.490006 69.7653 4.34467C67.7727 7.51334 66.5967 11.76 66.5967 14.602Z" fill="#D0D5D9"/>
<path d="M100.962 7.15433H95.7354L97.4014 0.555664H115.858L114.192 7.15433H108.998L105.797 20.4823H97.7607L100.962 7.15433Z" fill="#D0D5D9"/>
<path d="M117.099 0.555664H125.037L120.007 20.4823H112.199L117.099 0.555664Z" fill="#D0D5D9"/>
<path d="M133.564 6.14167H136.994C138.072 6.14167 138.692 6.599 138.692 7.54633C138.692 8.82033 137.908 10.2903 136.112 10.2903H132.551L133.564 6.14167ZM122.098 20.4823H130.003L131.636 13.557L135.458 20.4823H144.703L139.346 12.3157H140.75C144.082 12.3157 146.696 10.029 146.696 4.99833C146.696 2.189 145.944 0.555664 142.416 0.555664H127.128L122.098 20.4823Z" fill="#D0D5D9"/>
<path d="M149.57 0.555664H168.647L167.112 6.86033H156.071L155.581 9.08167H166.589L165.544 13.361H154.535L154.078 15.1577H165.119L163.845 20.4823H144.801L149.57 0.555664Z" fill="#D0D5D9"/>
<path d="M166.818 15.0925C169.758 15.4845 172.698 15.7132 175.671 15.7132C176.52 15.7132 178.349 15.7132 178.349 14.4392C178.349 13.4919 177.892 13.2959 173.253 13.2959C170.869 13.2959 168.255 12.4139 168.255 9.31053C168.255 5.0312 170.313 1.56854 173.449 0.621209C175.181 0.0985424 177.696 0.0332031 179.623 0.0332031C182.204 0.0332031 186.385 0.163876 190.175 0.784543L188.541 6.92587C186.026 6.59921 183.543 6.30521 180.995 6.30521C177.925 6.30521 177.173 6.76254 177.173 7.70987C177.173 8.49387 177.696 8.72254 181.747 8.72254C184.687 8.72254 187.3 8.8532 187.3 13.0672C187.3 14.6025 186.614 16.7585 186.091 17.7059C184.491 20.5152 181.91 21.0379 176.781 21.0379C172.633 21.0379 169.105 20.7765 165.675 20.1232L166.818 15.0925Z" fill="#D0D5D9"/>
<path d="M194.52 0.326667C195.075 0.326667 195.532 0.522671 195.892 0.882004C196.284 1.274 196.447 1.69867 196.447 2.25401C196.447 2.77667 196.251 3.234 195.892 3.626C195.5 4.018 195.042 4.18134 194.52 4.18134C193.964 4.18134 193.507 3.98534 193.148 3.626C192.756 3.234 192.592 2.77667 192.592 2.25401C192.592 1.73134 192.788 1.274 193.148 0.882004C193.507 0.522671 193.964 0.326667 194.52 0.326667ZM196.774 2.25401C196.774 1.63334 196.545 1.11067 196.12 0.653333C195.663 0.228667 195.14 0 194.52 0C193.899 0 193.344 0.228667 192.919 0.653333C192.462 1.078 192.266 1.63334 192.266 2.25401C192.266 2.87467 192.494 3.39734 192.919 3.85467C193.376 4.31201 193.899 4.50801 194.52 4.50801C195.14 4.50801 195.696 4.27934 196.12 3.85467C196.578 3.43001 196.774 2.90734 196.774 2.25401ZM195.108 1.79667C195.108 1.99267 195.01 2.12334 194.846 2.18867C194.748 2.22134 194.618 2.25401 194.422 2.25401H194.03V1.372H194.422C194.683 1.372 194.846 1.40467 194.944 1.47C195.042 1.50267 195.108 1.60067 195.108 1.79667ZM193.572 1.01267V3.49534H193.997V2.51534H194.356C194.585 2.51534 194.748 2.54801 194.846 2.58067C195.01 2.67867 195.075 2.87467 195.075 3.136V3.332V3.39734V3.43V3.46267H195.5L195.467 3.43C195.467 3.39733 195.434 3.36467 195.434 3.29934C195.434 3.234 195.434 3.16867 195.434 3.10333V2.90734C195.434 2.77667 195.402 2.646 195.304 2.51534C195.206 2.38467 195.075 2.28667 194.879 2.28667C195.042 2.254 195.173 2.22134 195.238 2.156C195.402 2.058 195.5 1.89467 195.5 1.666C195.5 1.33934 195.369 1.14334 195.108 1.04534C194.977 0.980004 194.748 0.947341 194.422 0.947341H193.572V1.01267Z" fill="#D0D5D9"/>
<path d="M2.5701 0.555664L0.773438 7.15433H6.42477L2.9621 20.4823H11.6514L15.1141 7.15433H20.7001L22.4968 0.555664H2.5701Z" fill="#D0D5D9"/>
</svg>
