<svg width="464" height="296" viewBox="0 0 464 296" fill="none" xmlns="http://www.w3.org/2000/svg">
<g opacity="0.05">
<path d="M174.224 303.818C174.224 224.819 239.405 159.637 318.404 159.637C399.383 159.637 462.585 224.81 462.585 303.818C462.585 382.817 397.403 447.999 318.404 447.999C239.405 447.999 174.224 382.817 174.224 303.818ZM233.875 301.829C233.875 350.096 272.095 388.346 318.404 388.346C366.672 388.346 404.935 350.121 402.933 301.808C402.922 253.55 364.707 215.311 318.404 215.311C272.095 215.311 233.875 253.561 233.875 301.829Z" stroke="white" stroke-width="2"/>
<path d="M-140 303.818C-140 224.819 -74.8182 159.637 4.18069 159.637C83.1796 159.637 148.361 224.819 148.361 303.818C148.361 382.817 83.1796 447.999 4.18069 447.999C-74.8182 447.999 -140 382.817 -140 303.818ZM-80.3483 301.829C-80.3483 350.096 -42.1288 388.346 4.18069 388.346C52.4944 388.346 88.7097 350.081 88.7097 301.829C88.7097 253.561 50.4902 215.311 4.18069 215.311C-42.1288 215.311 -80.3483 253.561 -80.3483 301.829Z" stroke="white" stroke-width="2"/>
<path d="M174.224 -8.42445C174.224 -87.4234 239.405 -152.605 318.404 -152.605C399.383 -152.605 462.585 -87.4323 462.585 -8.42445C462.585 70.5745 397.403 135.756 318.404 135.756C239.405 135.756 174.224 70.5745 174.224 -8.42445ZM233.875 -10.4134C233.875 37.8543 272.095 76.1042 318.404 76.1042C366.672 76.1042 404.935 37.8792 402.933 -10.4341C402.922 -58.6919 364.707 -96.931 318.404 -96.931C272.095 -96.931 233.875 -58.681 233.875 -10.4134Z" stroke="white" stroke-width="2"/>
<path d="M-140 -8.42445C-140 -87.4234 -74.8182 -152.605 4.18069 -152.605C83.1796 -152.605 148.361 -87.4234 148.361 -8.42445C148.361 70.5745 83.1796 135.756 4.18069 135.756C-74.8182 135.756 -140 70.5745 -140 -8.42445ZM-80.3483 -10.4134C-80.3483 37.8543 -42.1288 76.1042 4.18069 76.1042C52.4944 76.1042 88.7097 37.8385 88.7097 -10.4134C88.7097 -58.681 50.4902 -96.931 4.18069 -96.931C-42.1288 -96.931 -80.3483 -58.681 -80.3483 -10.4134Z" stroke="white" stroke-width="2"/>
</g>
</svg>
