<svg width="211" height="30" viewBox="0 0 211 30" fill="none" xmlns="http://www.w3.org/2000/svg">
<path fill-rule="evenodd" clip-rule="evenodd" d="M17.6135 15.0051L2.51158 30.0005H0L15.1019 15.0051L0 0.00976562H2.51158L17.6135 15.0051Z" fill="#D0D5D9"/>
<path fill-rule="evenodd" clip-rule="evenodd" d="M31.0755 11.7331L42.9198 0H45.436L32.3544 13.0074L33.1422 13.772L46.9883 0H49.5046L19.3192 29.9907H16.8076L31.9096 14.9861L16.8076 0H19.3192L24.815 5.46339L30.3109 0.00926784H32.8224L26.0708 6.71918L26.9049 7.55329L34.5092 0H37.0208L28.1607 8.80908L28.9902 9.63392L38.7261 0H41.2376L30.2692 10.8897L31.0755 11.7331Z" fill="#D0D5D9"/>
<path fill-rule="evenodd" clip-rule="evenodd" d="M21.8115 15.0051L6.70958 30.0005H4.19336L19.2999 15.0051L4.19336 0.00976562H6.70958L21.8115 15.0051Z" fill="#D0D5D9"/>
<path fill-rule="evenodd" clip-rule="evenodd" d="M26.0098 15.0051L10.9078 30.0005H8.3916L23.4935 15.0051L8.3916 0.00976562H10.9078L26.0098 15.0051Z" fill="#D0D5D9"/>
<path fill-rule="evenodd" clip-rule="evenodd" d="M30.2044 15.0051L15.1024 30.0005H12.5908L27.6928 15.0051L12.5908 0.00976562H15.1024L30.2044 15.0051Z" fill="#D0D5D9"/>
<path fill-rule="evenodd" clip-rule="evenodd" d="M199.04 9.41101L196.723 16.1209H201.468L199.063 9.41101H199.04ZM197.451 3.61861H200.648L210.009 25.8614H205.505L203.104 20.12H195.18L192.715 25.8614H188.211L197.451 3.61861ZM164.253 25.8614V3.61861H169.814L175.787 20.6297L181.811 3.61861H187.451V25.8614H183.345V9.12371L177.576 25.8614H174.096L168.359 9.12371V25.8614H164.253ZM152.919 9.41101L150.574 16.1209H155.319L152.919 9.41101ZM151.325 3.61861H154.513L163.874 25.8614H159.374L156.969 20.12H149.045L146.584 25.8614H142.08L151.325 3.61861ZM125.329 3.61861H129.439V12.5435H137.423V3.61861H141.501V25.8614H137.423V16.5102H129.439V25.8614H125.329V3.61861ZM105.5 14.9532C105.534 16.0385 105.806 17.1032 106.297 18.0718C106.752 18.9759 107.382 19.7807 108.151 20.4397C108.861 21.0563 109.669 21.5496 110.542 21.8994C111.286 22.2073 112.081 22.3739 112.886 22.3906C114.19 22.3973 115.471 22.0514 116.594 21.3897C117.734 20.7282 118.683 19.7811 119.346 18.6418C120.027 17.4827 120.408 16.1717 120.454 14.8281C120.457 13.5579 120.155 12.3055 119.573 11.1765C118.995 10.0453 118.129 9.0863 117.062 8.39618C115.939 7.66759 114.641 7.25462 113.304 7.20063C112.403 7.20666 111.511 7.36329 110.662 7.66402C109.737 7.99003 108.877 8.47801 108.123 9.10517C107.319 9.77119 106.671 10.6046 106.223 11.5472C105.721 12.6111 105.473 13.7772 105.5 14.9532ZM101.445 15.1293C101.384 12.8578 101.974 10.6162 103.146 8.66958C104.207 6.9303 105.725 5.51513 107.534 4.57783C109.238 3.67634 111.135 3.19945 113.063 3.18766C114.593 3.17944 116.107 3.49529 117.507 4.11444C118.898 4.72984 120.157 5.60956 121.214 6.7048C122.286 7.79962 123.138 9.08941 123.725 10.5046C124.316 11.9115 124.619 13.4226 124.615 14.9485C124.615 15.0227 124.615 15.1293 124.615 15.2637C124.615 15.398 124.615 15.5092 124.615 15.5788C124.464 17.171 123.991 18.716 123.225 20.12C122.309 21.8875 120.972 23.4025 119.332 24.5315C117.59 25.7672 115.427 26.3851 112.845 26.3851C111.108 26.3897 109.393 26.0082 107.822 25.2683C106.438 24.613 105.214 23.6642 104.235 22.4879C103.329 21.4085 102.624 20.1747 102.154 18.8457C101.711 17.6556 101.471 16.3991 101.445 15.1293ZM89.4342 3.61861H93.5445V13.2942L100.495 3.61861H105.421L97.0014 14.5269L105.407 25.8614H100.481L93.5306 16.0607V25.8614H89.4342V3.61861ZM69.601 14.9532C69.638 16.0393 69.9133 17.1039 70.4073 18.0718C70.8626 18.9759 71.4926 19.7807 72.2609 20.4397C72.9709 21.0563 73.7791 21.5496 74.652 21.8994C75.3877 22.2039 76.1731 22.3705 76.969 22.3906C78.2723 22.397 79.5531 22.0512 80.6761 21.3897C81.8155 20.7268 82.7638 19.7801 83.4287 18.6418C84.1196 17.4853 84.5099 16.1742 84.564 14.8281C84.5676 13.5579 84.2656 12.3055 83.6835 11.1765C83.105 10.0453 82.2388 9.0863 81.1719 8.39618C80.0492 7.66759 78.7511 7.25462 77.4138 7.20063C76.5137 7.20631 75.6208 7.36295 74.7725 7.66402C73.8473 7.99003 72.9874 8.47801 72.2331 9.10517C71.4296 9.77119 70.7812 10.6046 70.3332 11.5472C69.8297 12.6107 69.5806 13.7768 69.6057 14.9532H69.601ZM65.551 15.1293C65.4893 12.8578 66.0794 10.6162 67.2516 8.66958C68.3119 6.92939 69.83 5.51396 71.64 4.57783C73.3438 3.67583 75.2404 3.1989 77.1682 3.18766C78.6983 3.17986 80.2127 3.49569 81.6122 4.11444C83.0032 4.73096 84.262 5.61055 85.3193 6.7048C86.3799 7.79338 87.2244 9.07336 87.8077 10.4768C88.3985 11.8837 88.701 13.3948 88.6974 14.9207C88.6974 14.9949 88.6974 15.1015 88.6974 15.2358C88.6974 15.3702 88.6974 15.4814 88.6974 15.551C88.5484 17.1436 88.0754 18.689 87.3073 20.0922C86.3942 21.8618 85.0569 23.3774 83.4148 24.5037C81.6786 25.7394 79.5161 26.3573 76.9273 26.3573C75.1908 26.3619 73.475 25.9804 71.9041 25.2405C70.5208 24.5852 69.2969 23.6364 68.3174 22.4601C67.4111 21.3806 66.7063 20.1469 66.2368 18.8179C65.8035 17.6355 65.5732 16.3884 65.5556 15.1293H65.551ZM50.0459 3.61861H54.6103L59.4157 13.7715L64.323 3.61861H68.8225L61.5009 17.6548V25.8614H57.3907V17.6548L50.0459 3.61861Z" fill="#D0D5D9"/>
</svg>
